<svg width="133" height="32" viewBox="0 0 133 32" fill="currentColor" xmlns="http://www.w3.org/2000/svg">
<rect width="133" height="31" fill="white"/>
<g filter="url(#filter0_d_74_102)">
<mask id="path-2-outside-1_74_102" maskUnits="userSpaceOnUse" x="11" y="8" width="109" height="17" fill="black">
<rect fill="white" x="11" y="8" width="109" height="17"/>
<path d="M12.5195 11.2227V10.6621H15.6265L15.6128 11.2227H15.3052C14.8836 11.2227 14.6273 11.2705 14.5361 11.3662C14.4974 11.4072 14.478 11.4528 14.478 11.5029C14.478 11.5508 14.4871 11.6112 14.5054 11.6841L16.9287 18.3491L19.2393 12.4395C19.2233 12.3962 19.2005 12.3289 19.1709 12.2378C19.1436 12.1466 19.1185 12.0703 19.0957 12.0088C19.0729 11.945 19.0444 11.8698 19.0103 11.7832C18.9761 11.6943 18.9408 11.6214 18.9043 11.5645C18.8678 11.5052 18.8268 11.4482 18.7812 11.3936C18.6855 11.2796 18.5716 11.2227 18.4395 11.2227H17.7524V10.6621H21.085V11.2227H20.3433C20.1929 11.2227 20.0949 11.2363 20.0493 11.2637C20.0037 11.2887 19.981 11.3389 19.981 11.4141C19.981 11.528 20.0641 11.8368 20.2305 12.3403L22.2744 18.3047L24.7695 11.7695C24.806 11.6374 24.8242 11.5474 24.8242 11.4995C24.8242 11.4494 24.8071 11.4027 24.7729 11.3594C24.7388 11.3161 24.6852 11.2842 24.6123 11.2637C24.5029 11.2363 24.3446 11.2227 24.1372 11.2227H23.7749V10.6621H26.1675L26.1812 11.2227H26.0137C25.7949 11.2227 25.6479 11.2682 25.5728 11.3594C25.4976 11.4505 25.4189 11.6066 25.3369 11.8276C25.2549 12.0464 25.2104 12.166 25.2036 12.1865L22.1069 20.2256H21.8711L19.4888 13.2256L16.7749 20.2085H16.5493L13.5825 12.1045C13.4412 11.7103 13.3239 11.4733 13.2305 11.3936C13.137 11.3115 13.0596 11.2625 12.998 11.2466C12.9388 11.2306 12.8579 11.2227 12.7554 11.2227H12.5195ZM29.3619 16.835L29.3482 17.0332C29.3482 18.0745 29.7652 18.7581 30.5992 19.084C30.8499 19.182 31.1005 19.231 31.3512 19.231C31.6018 19.231 31.8217 19.2082 32.0108 19.1626C32.2 19.117 32.3583 19.0623 32.4859 18.9985C32.6158 18.9325 32.732 18.8675 32.8346 18.8037C33.0875 18.6488 33.2356 18.5713 33.2789 18.5713C33.3632 18.5713 33.4054 18.6134 33.4054 18.6978C33.4054 18.7821 33.3666 18.88 33.2892 18.9917C33.2117 19.1034 33.0955 19.2275 32.9405 19.3643C32.7856 19.4987 32.609 19.6263 32.4107 19.7471C31.9413 20.0365 31.4241 20.1812 30.859 20.1812C30.0911 20.1812 29.4781 19.9339 29.0201 19.4395C28.537 18.9131 28.2955 18.2454 28.2955 17.4365C28.2955 16.5365 28.5348 15.805 29.0133 15.2422C29.4827 14.6908 30.0694 14.415 30.7735 14.415C31.5619 14.415 32.2091 14.7318 32.7149 15.3652C32.9701 15.6842 33.0978 15.9645 33.0978 16.2061C33.0978 16.2721 33.0704 16.3234 33.0157 16.3599C32.9633 16.3963 32.9166 16.4146 32.8756 16.4146L29.3619 16.835ZM29.3893 16.3462L31.7955 16.0386C31.7363 15.8312 31.6406 15.6421 31.5084 15.4712C31.3762 15.298 31.2737 15.1795 31.2008 15.1157C31.0253 14.9653 30.8146 14.8901 30.5685 14.8901C30.3224 14.8901 30.0831 15.0212 29.8507 15.2832C29.6183 15.543 29.4645 15.8973 29.3893 16.3462ZM36.3059 19.7061L36.3469 17.8296V10.9697C36.3469 10.6895 36.2819 10.5493 36.1521 10.5493C36.0791 10.5493 35.8125 10.6006 35.3522 10.7031L35.3112 10.269C35.6257 10.2144 36.2979 10.0845 37.3278 9.87939V15.2969C37.3438 15.2855 37.3916 15.2467 37.4714 15.1807C37.5534 15.1146 37.6298 15.0542 37.7004 14.9995C37.7733 14.9425 37.8724 14.8765 37.9978 14.8013C38.1254 14.7238 38.2507 14.6589 38.3737 14.6064C38.6722 14.4788 39.0072 14.415 39.3786 14.415C39.75 14.415 40.1021 14.488 40.4348 14.6338C40.7697 14.7796 41.0386 14.9756 41.2414 15.2217C41.6561 15.7253 41.8635 16.3291 41.8635 17.0332C41.8635 18.0244 41.5091 18.8379 40.8005 19.4736C40.3129 19.9089 39.7056 20.1265 38.9787 20.1265C38.5412 20.1265 38.1914 20.0775 37.9294 19.9795C37.4326 19.7972 37.1524 19.7061 37.0886 19.7061C37.0271 19.7061 36.9245 19.7596 36.781 19.8667C36.6374 19.9738 36.5303 20.0273 36.4597 20.0273C36.3571 20.0273 36.3059 19.9202 36.3059 19.7061ZM38.9377 15.1704C38.2723 15.1704 37.7357 15.3424 37.3278 15.6865V18.6294C37.3278 19.0942 37.6525 19.4041 38.302 19.5591C38.4729 19.6001 38.6324 19.6206 38.7805 19.6206C38.9309 19.6206 39.0642 19.6138 39.1804 19.6001C39.2966 19.5864 39.423 19.5591 39.5598 19.5181C39.6988 19.4771 39.8275 19.4246 39.946 19.3608C40.0668 19.297 40.1841 19.2104 40.298 19.1011C40.412 18.9917 40.5088 18.8675 40.5886 18.7285C40.7663 18.4141 40.8552 18.062 40.8552 17.6724C40.8552 17.2804 40.8256 16.9614 40.7663 16.7153C40.7071 16.467 40.6319 16.263 40.5407 16.1035C40.4496 15.944 40.3402 15.8039 40.2126 15.6831C40.085 15.5623 39.9619 15.4712 39.8435 15.4097C39.7272 15.3459 39.6042 15.2946 39.4743 15.2559C39.2829 15.1989 39.104 15.1704 38.9377 15.1704ZM44.4393 16.7393V16.4316L53.4388 12.1182V13.0547L45.8953 16.5854L53.4388 20.1128V21.0493L44.4393 16.7393ZM55.9018 23.2334L60.6732 10.1152H61.3329L56.558 23.2334H55.9018ZM63.5908 17.5322C63.5908 17.1745 63.625 16.8486 63.6934 16.5547C63.7617 16.2607 63.8677 15.9827 64.0112 15.7207C64.1548 15.4587 64.3268 15.2285 64.5273 15.0303C64.9648 14.6019 65.5117 14.3877 66.168 14.3877C67.0133 14.3877 67.6764 14.6178 68.1572 15.0781C68.2598 15.1761 68.311 15.257 68.311 15.3208C68.311 15.3823 68.2723 15.4416 68.1948 15.4985C68.1174 15.5555 68.0273 15.5999 67.9248 15.6318C67.7083 15.6979 67.5557 15.731 67.4668 15.731C67.3779 15.731 67.2845 15.7048 67.1865 15.6523C67.0885 15.5977 66.9906 15.5316 66.8926 15.4541C66.7969 15.3766 66.6989 15.2992 66.5986 15.2217C66.3548 15.0371 66.1292 14.9448 65.9219 14.9448C65.7145 14.9448 65.5299 14.9961 65.3682 15.0986C65.2087 15.2012 65.0811 15.3299 64.9854 15.4849C64.8896 15.6398 64.8099 15.8187 64.7461 16.0215C64.639 16.3678 64.5854 16.7188 64.5854 17.0742C64.5854 17.4297 64.6287 17.7384 64.7153 18.0005C64.8042 18.2625 64.9181 18.4756 65.0571 18.6396C65.1961 18.8014 65.3579 18.937 65.5425 19.0464C65.8729 19.2424 66.209 19.3403 66.5508 19.3403C66.8949 19.3403 67.1831 19.3232 67.4155 19.2891C67.6502 19.2526 67.8234 19.2139 67.9351 19.1729C68.049 19.1318 68.1515 19.0942 68.2427 19.0601C68.3338 19.0236 68.3988 19.0054 68.4375 19.0054C68.5104 19.0054 68.5469 19.0452 68.5469 19.125C68.5469 19.2048 68.4785 19.3039 68.3418 19.4224C68.2074 19.5386 68.0353 19.6536 67.8257 19.7676C67.3107 20.0433 66.7764 20.1812 66.2227 20.1812C64.9102 20.1812 64.0853 19.6423 63.748 18.5645C63.6432 18.2318 63.5908 17.8877 63.5908 17.5322ZM70.651 17.2622C70.651 16.9705 70.6852 16.6868 70.7535 16.4111C70.8219 16.1354 70.929 15.8745 71.0748 15.6284C71.2229 15.38 71.4029 15.1647 71.6148 14.9824C72.0797 14.5859 72.6824 14.3877 73.423 14.3877C74.3412 14.3877 75.0556 14.6566 75.566 15.1943C76.0992 15.7526 76.3658 16.4954 76.3658 17.4229C76.3658 18.2181 76.1061 18.8789 75.5865 19.4053C75.0533 19.9408 74.3424 20.2085 73.4537 20.2085C72.401 20.2085 71.6148 19.7778 71.0953 18.9165C70.7991 18.4266 70.651 17.8752 70.651 17.2622ZM71.7721 16.876C71.7721 17.1722 71.7994 17.4513 71.8541 17.7134C71.9088 17.9731 71.9897 18.2204 72.0968 18.4551C72.2062 18.6875 72.3338 18.8949 72.4796 19.0771C72.6277 19.2572 72.8009 19.4007 72.9991 19.5078C73.1996 19.6126 73.4116 19.665 73.6349 19.665C73.8582 19.665 74.0587 19.6229 74.2364 19.5386C74.4142 19.4543 74.5611 19.3403 74.6773 19.1968C74.7958 19.0532 74.8938 18.8835 74.9713 18.6875C75.1171 18.3229 75.19 17.9116 75.19 17.4536C75.19 16.9956 75.1388 16.6037 75.0362 16.2778C74.936 15.9497 74.7981 15.6842 74.6227 15.4814C74.2626 15.069 73.8217 14.8628 73.2999 14.8628C72.8806 14.8628 72.524 15.036 72.2301 15.3823C71.9247 15.7446 71.7721 16.2425 71.7721 16.876ZM83.0295 20.3623L83.0432 19.3403C83.0432 19.2196 83.0386 19.1455 83.0295 19.1182C82.453 19.8177 81.7569 20.1675 80.9411 20.1675C80.2552 20.1675 79.6708 19.9146 79.1877 19.4087C78.6955 18.896 78.4494 18.2295 78.4494 17.4092C78.4494 17.0013 78.5292 16.6128 78.6887 16.2437C78.8505 15.8745 79.0601 15.5612 79.3176 15.3037C79.8781 14.7477 80.4956 14.4697 81.1701 14.4697C81.8446 14.4697 82.4553 14.6748 83.0022 15.085V10.915C83.0022 10.653 82.9361 10.522 82.8039 10.522C82.7242 10.522 82.4165 10.5824 81.8811 10.7031L81.8537 10.269C82.314 10.1847 83.0227 10.0173 83.9797 9.7666V19.019C83.9797 19.2606 83.9899 19.4212 84.0105 19.501C84.031 19.5807 84.0708 19.6206 84.1301 19.6206C84.1916 19.6206 84.2588 19.6104 84.3317 19.5898C84.4069 19.5671 84.5129 19.534 84.6496 19.4907C84.7886 19.4451 84.9208 19.4053 85.0461 19.3711V19.7471C84.8592 19.7995 84.5528 19.8918 84.1267 20.0239C83.7028 20.1561 83.3371 20.2689 83.0295 20.3623ZM79.9738 15.4712C79.8189 15.6466 79.6958 15.8608 79.6047 16.1138C79.5158 16.3644 79.4714 16.6413 79.4714 16.9443C79.4714 17.2474 79.5227 17.547 79.6252 17.8433C79.7277 18.1372 79.8713 18.3981 80.0559 18.626C80.4569 19.1227 80.9947 19.3711 81.6691 19.3711C81.9836 19.3711 82.2263 19.3244 82.3972 19.231C82.6843 19.0737 82.8859 18.9336 83.0022 18.8105V15.7993C82.7355 15.4325 82.3425 15.167 81.823 15.0029C81.6179 14.9368 81.4025 14.9038 81.177 14.9038C80.9514 14.9038 80.7326 14.9539 80.5207 15.0542C80.3111 15.1545 80.1288 15.2935 79.9738 15.4712ZM88.0799 16.835L88.0662 17.0332C88.0662 18.0745 88.4832 18.7581 89.3172 19.084C89.5678 19.182 89.8185 19.231 90.0691 19.231C90.3198 19.231 90.5397 19.2082 90.7288 19.1626C90.9179 19.117 91.0763 19.0623 91.2039 18.9985C91.3338 18.9325 91.45 18.8675 91.5525 18.8037C91.8055 18.6488 91.9536 18.5713 91.9969 18.5713C92.0812 18.5713 92.1233 18.6134 92.1233 18.6978C92.1233 18.7821 92.0846 18.88 92.0071 18.9917C91.9297 19.1034 91.8134 19.2275 91.6585 19.3643C91.5035 19.4987 91.327 19.6263 91.1287 19.7471C90.6593 20.0365 90.1421 20.1812 89.577 20.1812C88.809 20.1812 88.1961 19.9339 87.7381 19.4395C87.255 18.9131 87.0135 18.2454 87.0135 17.4365C87.0135 16.5365 87.2527 15.805 87.7312 15.2422C88.2006 14.6908 88.7874 14.415 89.4915 14.415C90.2799 14.415 90.927 14.7318 91.4329 15.3652C91.6881 15.6842 91.8157 15.9645 91.8157 16.2061C91.8157 16.2721 91.7884 16.3234 91.7337 16.3599C91.6813 16.3963 91.6346 16.4146 91.5936 16.4146L88.0799 16.835ZM88.1072 16.3462L90.5135 16.0386C90.4542 15.8312 90.3585 15.6421 90.2264 15.4712C90.0942 15.298 89.9917 15.1795 89.9187 15.1157C89.7433 14.9653 89.5325 14.8901 89.2864 14.8901C89.0403 14.8901 88.8011 15.0212 88.5686 15.2832C88.3362 15.543 88.1824 15.8973 88.1072 16.3462ZM94.6889 20.1128L102.232 16.5854L94.6889 13.0547V12.1182L103.688 16.4316V16.7393L94.6889 21.0493V20.1128ZM106.14 10.3973H107.44L110.885 14.8413V11.0351C110.885 10.9038 110.854 10.8177 110.791 10.7767C110.746 10.7479 110.623 10.7336 110.424 10.7336H110.129L110.145 10.3973H111.935V10.7336H111.742C111.569 10.7336 111.456 10.75 111.404 10.7828C111.321 10.832 111.279 10.9387 111.279 11.1027V15.9405C111.279 16.0226 111.275 16.0766 111.267 16.1025C111.26 16.1299 111.239 16.1436 111.203 16.1436H111.086C111.04 16.1436 111.012 16.1374 111.002 16.1251C110.993 16.1128 110.984 16.1032 110.978 16.0964C110.972 16.0896 110.961 16.0745 110.945 16.0513C110.93 16.0294 110.915 16.0096 110.902 15.9918L107.239 11.2873L107.282 15.2863C107.282 15.4682 107.318 15.5789 107.389 15.6186C107.457 15.6541 107.629 15.6719 107.903 15.6719H108.045V16H106.281V15.6719H106.533C106.718 15.6719 106.823 15.6404 106.849 15.5775C106.874 15.5174 106.886 15.4258 106.886 15.3027V10.8341L106.802 10.7336H106.148L106.14 10.3973ZM117.143 11.0617C117.284 10.9469 117.355 10.8635 117.355 10.8115C117.355 10.7596 117.225 10.7336 116.967 10.7336H116.641L116.623 10.3973H118.638V10.7336H118.421C118.26 10.7336 118.139 10.7541 118.058 10.7951C117.951 10.8512 117.733 11.0125 117.404 11.2791L115.507 12.7987L118.044 15.4463C118.133 15.5393 118.201 15.6001 118.249 15.6288C118.297 15.6575 118.349 15.6719 118.405 15.6719H118.891L118.874 16H117.556L115.002 13.1945L114.691 13.4468V15.2863C114.691 15.4244 114.701 15.5105 114.721 15.5447C114.742 15.5775 114.766 15.6015 114.793 15.6165C114.822 15.6315 114.849 15.6418 114.873 15.6473C114.899 15.6527 114.939 15.6582 114.992 15.6637C115.062 15.6691 115.183 15.6719 115.355 15.6719H115.54V16H113.388L113.38 15.6719H113.608C113.809 15.6719 113.922 15.6575 113.946 15.6288C113.971 15.6001 113.986 15.5803 113.991 15.5693C113.997 15.557 114.002 15.5345 114.006 15.5017C114.01 15.4675 114.012 15.4395 114.012 15.4176V11.0351C114.012 10.8888 113.998 10.8067 113.971 10.789C113.945 10.7712 113.913 10.7582 113.877 10.75C113.833 10.7391 113.735 10.7336 113.583 10.7336H113.231V10.3973H115.331V10.7336H115.062C114.895 10.7336 114.8 10.7459 114.777 10.7705C114.755 10.7951 114.737 10.8225 114.723 10.8525C114.702 10.899 114.691 10.9879 114.691 11.1191V13.051L117.143 11.0617Z"/>
</mask>
<path d="M12.5195 11.2227V10.6621H15.6265L15.6128 11.2227H15.3052C14.8836 11.2227 14.6273 11.2705 14.5361 11.3662C14.4974 11.4072 14.478 11.4528 14.478 11.5029C14.478 11.5508 14.4871 11.6112 14.5054 11.6841L16.9287 18.3491L19.2393 12.4395C19.2233 12.3962 19.2005 12.3289 19.1709 12.2378C19.1436 12.1466 19.1185 12.0703 19.0957 12.0088C19.0729 11.945 19.0444 11.8698 19.0103 11.7832C18.9761 11.6943 18.9408 11.6214 18.9043 11.5645C18.8678 11.5052 18.8268 11.4482 18.7812 11.3936C18.6855 11.2796 18.5716 11.2227 18.4395 11.2227H17.7524V10.6621H21.085V11.2227H20.3433C20.1929 11.2227 20.0949 11.2363 20.0493 11.2637C20.0037 11.2887 19.981 11.3389 19.981 11.4141C19.981 11.528 20.0641 11.8368 20.2305 12.3403L22.2744 18.3047L24.7695 11.7695C24.806 11.6374 24.8242 11.5474 24.8242 11.4995C24.8242 11.4494 24.8071 11.4027 24.7729 11.3594C24.7388 11.3161 24.6852 11.2842 24.6123 11.2637C24.5029 11.2363 24.3446 11.2227 24.1372 11.2227H23.7749V10.6621H26.1675L26.1812 11.2227H26.0137C25.7949 11.2227 25.6479 11.2682 25.5728 11.3594C25.4976 11.4505 25.4189 11.6066 25.3369 11.8276C25.2549 12.0464 25.2104 12.166 25.2036 12.1865L22.1069 20.2256H21.8711L19.4888 13.2256L16.7749 20.2085H16.5493L13.5825 12.1045C13.4412 11.7103 13.3239 11.4733 13.2305 11.3936C13.137 11.3115 13.0596 11.2625 12.998 11.2466C12.9388 11.2306 12.8579 11.2227 12.7554 11.2227H12.5195ZM29.3619 16.835L29.3482 17.0332C29.3482 18.0745 29.7652 18.7581 30.5992 19.084C30.8499 19.182 31.1005 19.231 31.3512 19.231C31.6018 19.231 31.8217 19.2082 32.0108 19.1626C32.2 19.117 32.3583 19.0623 32.4859 18.9985C32.6158 18.9325 32.732 18.8675 32.8346 18.8037C33.0875 18.6488 33.2356 18.5713 33.2789 18.5713C33.3632 18.5713 33.4054 18.6134 33.4054 18.6978C33.4054 18.7821 33.3666 18.88 33.2892 18.9917C33.2117 19.1034 33.0955 19.2275 32.9405 19.3643C32.7856 19.4987 32.609 19.6263 32.4107 19.7471C31.9413 20.0365 31.4241 20.1812 30.859 20.1812C30.0911 20.1812 29.4781 19.9339 29.0201 19.4395C28.537 18.9131 28.2955 18.2454 28.2955 17.4365C28.2955 16.5365 28.5348 15.805 29.0133 15.2422C29.4827 14.6908 30.0694 14.415 30.7735 14.415C31.5619 14.415 32.2091 14.7318 32.7149 15.3652C32.9701 15.6842 33.0978 15.9645 33.0978 16.2061C33.0978 16.2721 33.0704 16.3234 33.0157 16.3599C32.9633 16.3963 32.9166 16.4146 32.8756 16.4146L29.3619 16.835ZM29.3893 16.3462L31.7955 16.0386C31.7363 15.8312 31.6406 15.6421 31.5084 15.4712C31.3762 15.298 31.2737 15.1795 31.2008 15.1157C31.0253 14.9653 30.8146 14.8901 30.5685 14.8901C30.3224 14.8901 30.0831 15.0212 29.8507 15.2832C29.6183 15.543 29.4645 15.8973 29.3893 16.3462ZM36.3059 19.7061L36.3469 17.8296V10.9697C36.3469 10.6895 36.2819 10.5493 36.1521 10.5493C36.0791 10.5493 35.8125 10.6006 35.3522 10.7031L35.3112 10.269C35.6257 10.2144 36.2979 10.0845 37.3278 9.87939V15.2969C37.3438 15.2855 37.3916 15.2467 37.4714 15.1807C37.5534 15.1146 37.6298 15.0542 37.7004 14.9995C37.7733 14.9425 37.8724 14.8765 37.9978 14.8013C38.1254 14.7238 38.2507 14.6589 38.3737 14.6064C38.6722 14.4788 39.0072 14.415 39.3786 14.415C39.75 14.415 40.1021 14.488 40.4348 14.6338C40.7697 14.7796 41.0386 14.9756 41.2414 15.2217C41.6561 15.7253 41.8635 16.3291 41.8635 17.0332C41.8635 18.0244 41.5091 18.8379 40.8005 19.4736C40.3129 19.9089 39.7056 20.1265 38.9787 20.1265C38.5412 20.1265 38.1914 20.0775 37.9294 19.9795C37.4326 19.7972 37.1524 19.7061 37.0886 19.7061C37.0271 19.7061 36.9245 19.7596 36.781 19.8667C36.6374 19.9738 36.5303 20.0273 36.4597 20.0273C36.3571 20.0273 36.3059 19.9202 36.3059 19.7061ZM38.9377 15.1704C38.2723 15.1704 37.7357 15.3424 37.3278 15.6865V18.6294C37.3278 19.0942 37.6525 19.4041 38.302 19.5591C38.4729 19.6001 38.6324 19.6206 38.7805 19.6206C38.9309 19.6206 39.0642 19.6138 39.1804 19.6001C39.2966 19.5864 39.423 19.5591 39.5598 19.5181C39.6988 19.4771 39.8275 19.4246 39.946 19.3608C40.0668 19.297 40.1841 19.2104 40.298 19.1011C40.412 18.9917 40.5088 18.8675 40.5886 18.7285C40.7663 18.4141 40.8552 18.062 40.8552 17.6724C40.8552 17.2804 40.8256 16.9614 40.7663 16.7153C40.7071 16.467 40.6319 16.263 40.5407 16.1035C40.4496 15.944 40.3402 15.8039 40.2126 15.6831C40.085 15.5623 39.9619 15.4712 39.8435 15.4097C39.7272 15.3459 39.6042 15.2946 39.4743 15.2559C39.2829 15.1989 39.104 15.1704 38.9377 15.1704ZM44.4393 16.7393V16.4316L53.4388 12.1182V13.0547L45.8953 16.5854L53.4388 20.1128V21.0493L44.4393 16.7393ZM55.9018 23.2334L60.6732 10.1152H61.3329L56.558 23.2334H55.9018ZM63.5908 17.5322C63.5908 17.1745 63.625 16.8486 63.6934 16.5547C63.7617 16.2607 63.8677 15.9827 64.0112 15.7207C64.1548 15.4587 64.3268 15.2285 64.5273 15.0303C64.9648 14.6019 65.5117 14.3877 66.168 14.3877C67.0133 14.3877 67.6764 14.6178 68.1572 15.0781C68.2598 15.1761 68.311 15.257 68.311 15.3208C68.311 15.3823 68.2723 15.4416 68.1948 15.4985C68.1174 15.5555 68.0273 15.5999 67.9248 15.6318C67.7083 15.6979 67.5557 15.731 67.4668 15.731C67.3779 15.731 67.2845 15.7048 67.1865 15.6523C67.0885 15.5977 66.9906 15.5316 66.8926 15.4541C66.7969 15.3766 66.6989 15.2992 66.5986 15.2217C66.3548 15.0371 66.1292 14.9448 65.9219 14.9448C65.7145 14.9448 65.5299 14.9961 65.3682 15.0986C65.2087 15.2012 65.0811 15.3299 64.9854 15.4849C64.8896 15.6398 64.8099 15.8187 64.7461 16.0215C64.639 16.3678 64.5854 16.7188 64.5854 17.0742C64.5854 17.4297 64.6287 17.7384 64.7153 18.0005C64.8042 18.2625 64.9181 18.4756 65.0571 18.6396C65.1961 18.8014 65.3579 18.937 65.5425 19.0464C65.8729 19.2424 66.209 19.3403 66.5508 19.3403C66.8949 19.3403 67.1831 19.3232 67.4155 19.2891C67.6502 19.2526 67.8234 19.2139 67.9351 19.1729C68.049 19.1318 68.1515 19.0942 68.2427 19.0601C68.3338 19.0236 68.3988 19.0054 68.4375 19.0054C68.5104 19.0054 68.5469 19.0452 68.5469 19.125C68.5469 19.2048 68.4785 19.3039 68.3418 19.4224C68.2074 19.5386 68.0353 19.6536 67.8257 19.7676C67.3107 20.0433 66.7764 20.1812 66.2227 20.1812C64.9102 20.1812 64.0853 19.6423 63.748 18.5645C63.6432 18.2318 63.5908 17.8877 63.5908 17.5322ZM70.651 17.2622C70.651 16.9705 70.6852 16.6868 70.7535 16.4111C70.8219 16.1354 70.929 15.8745 71.0748 15.6284C71.2229 15.38 71.4029 15.1647 71.6148 14.9824C72.0797 14.5859 72.6824 14.3877 73.423 14.3877C74.3412 14.3877 75.0556 14.6566 75.566 15.1943C76.0992 15.7526 76.3658 16.4954 76.3658 17.4229C76.3658 18.2181 76.1061 18.8789 75.5865 19.4053C75.0533 19.9408 74.3424 20.2085 73.4537 20.2085C72.401 20.2085 71.6148 19.7778 71.0953 18.9165C70.7991 18.4266 70.651 17.8752 70.651 17.2622ZM71.7721 16.876C71.7721 17.1722 71.7994 17.4513 71.8541 17.7134C71.9088 17.9731 71.9897 18.2204 72.0968 18.4551C72.2062 18.6875 72.3338 18.8949 72.4796 19.0771C72.6277 19.2572 72.8009 19.4007 72.9991 19.5078C73.1996 19.6126 73.4116 19.665 73.6349 19.665C73.8582 19.665 74.0587 19.6229 74.2364 19.5386C74.4142 19.4543 74.5611 19.3403 74.6773 19.1968C74.7958 19.0532 74.8938 18.8835 74.9713 18.6875C75.1171 18.3229 75.19 17.9116 75.19 17.4536C75.19 16.9956 75.1388 16.6037 75.0362 16.2778C74.936 15.9497 74.7981 15.6842 74.6227 15.4814C74.2626 15.069 73.8217 14.8628 73.2999 14.8628C72.8806 14.8628 72.524 15.036 72.2301 15.3823C71.9247 15.7446 71.7721 16.2425 71.7721 16.876ZM83.0295 20.3623L83.0432 19.3403C83.0432 19.2196 83.0386 19.1455 83.0295 19.1182C82.453 19.8177 81.7569 20.1675 80.9411 20.1675C80.2552 20.1675 79.6708 19.9146 79.1877 19.4087C78.6955 18.896 78.4494 18.2295 78.4494 17.4092C78.4494 17.0013 78.5292 16.6128 78.6887 16.2437C78.8505 15.8745 79.0601 15.5612 79.3176 15.3037C79.8781 14.7477 80.4956 14.4697 81.1701 14.4697C81.8446 14.4697 82.4553 14.6748 83.0022 15.085V10.915C83.0022 10.653 82.9361 10.522 82.8039 10.522C82.7242 10.522 82.4165 10.5824 81.8811 10.7031L81.8537 10.269C82.314 10.1847 83.0227 10.0173 83.9797 9.7666V19.019C83.9797 19.2606 83.9899 19.4212 84.0105 19.501C84.031 19.5807 84.0708 19.6206 84.1301 19.6206C84.1916 19.6206 84.2588 19.6104 84.3317 19.5898C84.4069 19.5671 84.5129 19.534 84.6496 19.4907C84.7886 19.4451 84.9208 19.4053 85.0461 19.3711V19.7471C84.8592 19.7995 84.5528 19.8918 84.1267 20.0239C83.7028 20.1561 83.3371 20.2689 83.0295 20.3623ZM79.9738 15.4712C79.8189 15.6466 79.6958 15.8608 79.6047 16.1138C79.5158 16.3644 79.4714 16.6413 79.4714 16.9443C79.4714 17.2474 79.5227 17.547 79.6252 17.8433C79.7277 18.1372 79.8713 18.3981 80.0559 18.626C80.4569 19.1227 80.9947 19.3711 81.6691 19.3711C81.9836 19.3711 82.2263 19.3244 82.3972 19.231C82.6843 19.0737 82.8859 18.9336 83.0022 18.8105V15.7993C82.7355 15.4325 82.3425 15.167 81.823 15.0029C81.6179 14.9368 81.4025 14.9038 81.177 14.9038C80.9514 14.9038 80.7326 14.9539 80.5207 15.0542C80.3111 15.1545 80.1288 15.2935 79.9738 15.4712ZM88.0799 16.835L88.0662 17.0332C88.0662 18.0745 88.4832 18.7581 89.3172 19.084C89.5678 19.182 89.8185 19.231 90.0691 19.231C90.3198 19.231 90.5397 19.2082 90.7288 19.1626C90.9179 19.117 91.0763 19.0623 91.2039 18.9985C91.3338 18.9325 91.45 18.8675 91.5525 18.8037C91.8055 18.6488 91.9536 18.5713 91.9969 18.5713C92.0812 18.5713 92.1233 18.6134 92.1233 18.6978C92.1233 18.7821 92.0846 18.88 92.0071 18.9917C91.9297 19.1034 91.8134 19.2275 91.6585 19.3643C91.5035 19.4987 91.327 19.6263 91.1287 19.7471C90.6593 20.0365 90.1421 20.1812 89.577 20.1812C88.809 20.1812 88.1961 19.9339 87.7381 19.4395C87.255 18.9131 87.0135 18.2454 87.0135 17.4365C87.0135 16.5365 87.2527 15.805 87.7312 15.2422C88.2006 14.6908 88.7874 14.415 89.4915 14.415C90.2799 14.415 90.927 14.7318 91.4329 15.3652C91.6881 15.6842 91.8157 15.9645 91.8157 16.2061C91.8157 16.2721 91.7884 16.3234 91.7337 16.3599C91.6813 16.3963 91.6346 16.4146 91.5936 16.4146L88.0799 16.835ZM88.1072 16.3462L90.5135 16.0386C90.4542 15.8312 90.3585 15.6421 90.2264 15.4712C90.0942 15.298 89.9917 15.1795 89.9187 15.1157C89.7433 14.9653 89.5325 14.8901 89.2864 14.8901C89.0403 14.8901 88.8011 15.0212 88.5686 15.2832C88.3362 15.543 88.1824 15.8973 88.1072 16.3462ZM94.6889 20.1128L102.232 16.5854L94.6889 13.0547V12.1182L103.688 16.4316V16.7393L94.6889 21.0493V20.1128ZM106.14 10.3973H107.44L110.885 14.8413V11.0351C110.885 10.9038 110.854 10.8177 110.791 10.7767C110.746 10.7479 110.623 10.7336 110.424 10.7336H110.129L110.145 10.3973H111.935V10.7336H111.742C111.569 10.7336 111.456 10.75 111.404 10.7828C111.321 10.832 111.279 10.9387 111.279 11.1027V15.9405C111.279 16.0226 111.275 16.0766 111.267 16.1025C111.26 16.1299 111.239 16.1436 111.203 16.1436H111.086C111.04 16.1436 111.012 16.1374 111.002 16.1251C110.993 16.1128 110.984 16.1032 110.978 16.0964C110.972 16.0896 110.961 16.0745 110.945 16.0513C110.93 16.0294 110.915 16.0096 110.902 15.9918L107.239 11.2873L107.282 15.2863C107.282 15.4682 107.318 15.5789 107.389 15.6186C107.457 15.6541 107.629 15.6719 107.903 15.6719H108.045V16H106.281V15.6719H106.533C106.718 15.6719 106.823 15.6404 106.849 15.5775C106.874 15.5174 106.886 15.4258 106.886 15.3027V10.8341L106.802 10.7336H106.148L106.14 10.3973ZM117.143 11.0617C117.284 10.9469 117.355 10.8635 117.355 10.8115C117.355 10.7596 117.225 10.7336 116.967 10.7336H116.641L116.623 10.3973H118.638V10.7336H118.421C118.26 10.7336 118.139 10.7541 118.058 10.7951C117.951 10.8512 117.733 11.0125 117.404 11.2791L115.507 12.7987L118.044 15.4463C118.133 15.5393 118.201 15.6001 118.249 15.6288C118.297 15.6575 118.349 15.6719 118.405 15.6719H118.891L118.874 16H117.556L115.002 13.1945L114.691 13.4468V15.2863C114.691 15.4244 114.701 15.5105 114.721 15.5447C114.742 15.5775 114.766 15.6015 114.793 15.6165C114.822 15.6315 114.849 15.6418 114.873 15.6473C114.899 15.6527 114.939 15.6582 114.992 15.6637C115.062 15.6691 115.183 15.6719 115.355 15.6719H115.54V16H113.388L113.38 15.6719H113.608C113.809 15.6719 113.922 15.6575 113.946 15.6288C113.971 15.6001 113.986 15.5803 113.991 15.5693C113.997 15.557 114.002 15.5345 114.006 15.5017C114.01 15.4675 114.012 15.4395 114.012 15.4176V11.0351C114.012 10.8888 113.998 10.8067 113.971 10.789C113.945 10.7712 113.913 10.7582 113.877 10.75C113.833 10.7391 113.735 10.7336 113.583 10.7336H113.231V10.3973H115.331V10.7336H115.062C114.895 10.7336 114.8 10.7459 114.777 10.7705C114.755 10.7951 114.737 10.8225 114.723 10.8525C114.702 10.899 114.691 10.9879 114.691 11.1191V13.051L117.143 11.0617Z" fill="white"/>
<path d="M12.5195 11.2227H11.5195V12.2227H12.5195V11.2227ZM12.5195 10.6621V9.66211H11.5195V10.6621H12.5195ZM15.6265 10.6621L16.6262 10.6865L16.6512 9.66211H15.6265V10.6621ZM15.6128 11.2227V12.2227H16.5887L16.6125 11.247L15.6128 11.2227ZM14.5361 11.3662L13.812 10.6765L13.8091 10.6796L14.5361 11.3662ZM14.5054 11.6841L13.5352 11.9266L13.5478 11.977L13.5656 12.0258L14.5054 11.6841ZM16.9287 18.3491L15.9889 18.6908L16.8947 21.1822L17.8601 18.7133L16.9287 18.3491ZM19.2393 12.4395L20.1706 12.8036L20.3089 12.45L20.1776 12.0937L19.2393 12.4395ZM19.1709 12.2378L18.2131 12.5251L18.2163 12.536L18.2199 12.5469L19.1709 12.2378ZM19.0957 12.0088L18.1539 12.3451L18.158 12.3561L19.0957 12.0088ZM19.0103 11.7832L18.0769 12.1422L18.0801 12.1504L19.0103 11.7832ZM18.9043 11.5645L18.0526 12.0886L18.0573 12.0961L18.062 12.1035L18.9043 11.5645ZM18.7812 11.3936L19.5495 10.7534L19.547 10.7504L18.7812 11.3936ZM17.7524 11.2227H16.7524V12.2227H17.7524V11.2227ZM17.7524 10.6621V9.66211H16.7524V10.6621H17.7524ZM21.085 10.6621H22.085V9.66211H21.085V10.6621ZM21.085 11.2227V12.2227H22.085V11.2227H21.085ZM20.0493 11.2637L20.5312 12.1399L20.5477 12.1308L20.5638 12.1212L20.0493 11.2637ZM20.2305 12.3403L19.2809 12.654L19.2845 12.6645L20.2305 12.3403ZM22.2744 18.3047L21.3284 18.6289L22.2237 21.2412L23.2086 18.6614L22.2744 18.3047ZM24.7695 11.7695L25.7038 12.1262L25.7208 12.0816L25.7335 12.0355L24.7695 11.7695ZM24.6123 11.2637L24.8831 10.301L24.869 10.2971L24.8548 10.2935L24.6123 11.2637ZM23.7749 11.2227H22.7749V12.2227H23.7749V11.2227ZM23.7749 10.6621V9.66211H22.7749V10.6621H23.7749ZM26.1675 10.6621L27.1672 10.6377L27.1434 9.66211H26.1675V10.6621ZM26.1812 11.2227V12.2227H27.2058L27.1809 11.1983L26.1812 11.2227ZM25.3369 11.8276L26.2732 12.1788L26.2744 12.1756L25.3369 11.8276ZM25.2036 12.1865L26.1368 12.546L26.145 12.5245L26.1523 12.5028L25.2036 12.1865ZM22.1069 20.2256V21.2256H22.7934L23.0401 20.585L22.1069 20.2256ZM21.8711 20.2256L20.9244 20.5478L21.1551 21.2256H21.8711V20.2256ZM19.4888 13.2256L20.4354 12.9034L19.5511 10.3048L18.5567 12.8633L19.4888 13.2256ZM16.7749 20.2085V21.2085H17.4591L17.707 20.5707L16.7749 20.2085ZM16.5493 20.2085L15.6103 20.5523L15.8505 21.2085H16.5493V20.2085ZM13.5825 12.1045L12.6411 12.4419L12.6435 12.4483L13.5825 12.1045ZM13.2305 11.3936L12.5706 12.1451L12.5812 12.1541L13.2305 11.3936ZM12.998 11.2466L12.7381 12.2122L12.7471 12.2146L12.998 11.2466ZM13.5195 11.2227V10.6621H11.5195V11.2227H13.5195ZM12.5195 11.6621H15.6265V9.66211H12.5195V11.6621ZM14.6268 10.6377L14.6131 11.1983L16.6125 11.247L16.6262 10.6865L14.6268 10.6377ZM15.6128 10.2227H15.3052V12.2227H15.6128V10.2227ZM15.3052 10.2227C15.0655 10.2227 14.8273 10.2356 14.6133 10.2755C14.4471 10.3065 14.0876 10.3872 13.812 10.6766L15.2603 12.0559C15.2057 12.1131 15.1529 12.1522 15.1125 12.1778C15.0721 12.2033 15.0385 12.2189 15.0173 12.2276C14.9776 12.244 14.9601 12.2453 14.9803 12.2416C14.9977 12.2383 15.0329 12.2332 15.0904 12.2291C15.1469 12.2252 15.218 12.2227 15.3052 12.2227V10.2227ZM13.8091 10.6796C13.6189 10.881 13.478 11.1648 13.478 11.5029H15.478C15.478 11.6106 15.4564 11.7198 15.4129 11.8223C15.3702 11.9228 15.314 11.999 15.2631 12.0528L13.8091 10.6796ZM13.478 11.5029C13.478 11.6652 13.5071 11.8139 13.5352 11.9266L15.4755 11.4415C15.4724 11.4292 15.4726 11.4275 15.4737 11.4349C15.4746 11.4413 15.478 11.4655 15.478 11.5029H13.478ZM13.5656 12.0258L15.9889 18.6908L17.8685 18.0074L15.4452 11.3424L13.5656 12.0258ZM17.8601 18.7133L20.1706 12.8036L18.3079 12.0753L15.9974 17.985L17.8601 18.7133ZM20.1776 12.0937C20.1687 12.0696 20.1508 12.0177 20.1219 11.9287L18.2199 12.5469C18.2502 12.6402 18.2779 12.7227 18.3009 12.7852L20.1776 12.0937ZM20.1287 11.9504C20.0978 11.8472 20.066 11.7494 20.0335 11.6615L18.158 12.3561C18.171 12.3912 18.1894 12.4461 18.2131 12.5251L20.1287 11.9504ZM20.0374 11.6725C20.0099 11.5953 19.9772 11.5094 19.9404 11.416L18.0801 12.1504C18.1116 12.2302 18.1359 12.2947 18.154 12.3451L20.0374 11.6725ZM19.9436 11.4242C19.8942 11.2957 19.8307 11.1569 19.7466 11.0254L18.062 12.1035C18.0553 12.0931 18.0544 12.0901 18.0581 12.0978C18.0617 12.1052 18.0682 12.1195 18.0769 12.1422L19.9436 11.4242ZM19.756 11.0404C19.6939 10.9395 19.6249 10.8439 19.5495 10.7534L18.013 12.0337C18.0288 12.0526 18.0418 12.0709 18.0526 12.0886L19.756 11.0404ZM19.547 10.7504C19.2881 10.4422 18.9064 10.2227 18.4395 10.2227V12.2227C18.3563 12.2227 18.264 12.2034 18.1768 12.1598C18.0928 12.1178 18.041 12.067 18.0155 12.0367L19.547 10.7504ZM18.4395 10.2227H17.7524V12.2227H18.4395V10.2227ZM18.7524 11.2227V10.6621H16.7524V11.2227H18.7524ZM17.7524 11.6621H21.085V9.66211H17.7524V11.6621ZM20.085 10.6621V11.2227H22.085V10.6621H20.085ZM21.085 10.2227H20.3433V12.2227H21.085V10.2227ZM20.3433 10.2227C20.243 10.2227 20.1306 10.2269 20.0188 10.2425C19.9316 10.2547 19.7335 10.287 19.5348 10.4062L20.5638 12.1212C20.4768 12.1734 20.4031 12.1972 20.368 12.2073C20.3295 12.2183 20.303 12.2222 20.2952 12.2233C20.2814 12.2252 20.2932 12.2227 20.3433 12.2227V10.2227ZM19.5674 10.3875C19.0701 10.661 18.981 11.1552 18.981 11.4141H20.981C20.981 11.4701 20.9735 11.5906 20.9084 11.7339C20.8362 11.8928 20.7089 12.0422 20.5312 12.1399L19.5674 10.3875ZM18.981 11.4141C18.981 11.6232 19.0404 11.8527 19.0778 11.9912C19.1263 12.1714 19.1952 12.3944 19.2809 12.654L21.18 12.0267C21.0994 11.7827 21.0435 11.5995 21.0089 11.471C20.9915 11.4065 20.9821 11.3654 20.9777 11.343C20.9709 11.3082 20.981 11.3437 20.981 11.4141H18.981ZM19.2845 12.6645L21.3284 18.6289L23.2204 17.9805L21.1765 12.0161L19.2845 12.6645ZM23.2086 18.6614L25.7038 12.1262L23.8353 11.4128L21.3402 17.948L23.2086 18.6614ZM25.7335 12.0355C25.7649 11.9216 25.8242 11.7038 25.8242 11.4995H23.8242C23.8242 11.4746 23.8254 11.4547 23.8264 11.4416C23.8274 11.4282 23.8286 11.4181 23.8294 11.4122C23.8302 11.4061 23.8309 11.4025 23.831 11.4016C23.8312 11.4006 23.831 11.4015 23.8304 11.4044C23.8292 11.4105 23.8267 11.4219 23.8224 11.4393C23.8182 11.4565 23.8127 11.4778 23.8055 11.5036L25.7335 12.0355ZM25.8242 11.4995C25.8242 11.2017 25.7165 10.9407 25.5578 10.7397L23.9881 11.979C23.8978 11.8646 23.8242 11.6971 23.8242 11.4995H25.8242ZM25.5578 10.7397C25.3519 10.4789 25.085 10.3578 24.8831 10.301L24.3416 12.2263C24.2855 12.2105 24.1256 12.1532 23.9881 11.979L25.5578 10.7397ZM24.8548 10.2935C24.6258 10.2363 24.3703 10.2227 24.1372 10.2227V12.2227C24.2203 12.2227 24.282 12.2254 24.3255 12.2292C24.3715 12.2332 24.3826 12.237 24.3698 12.2338L24.8548 10.2935ZM24.1372 10.2227H23.7749V12.2227H24.1372V10.2227ZM24.7749 11.2227V10.6621H22.7749V11.2227H24.7749ZM23.7749 11.6621H26.1675V9.66211H23.7749V11.6621ZM25.1678 10.6865L25.1814 11.247L27.1809 11.1983L27.1672 10.6377L25.1678 10.6865ZM26.1812 10.2227H26.0137V12.2227H26.1812V10.2227ZM26.0137 10.2227C25.7324 10.2227 25.1779 10.2667 24.8014 10.723L26.3441 11.9958C26.2253 12.1397 26.0927 12.1943 26.0355 12.212C25.9821 12.2285 25.9661 12.2227 26.0137 12.2227V10.2227ZM24.8014 10.723C24.6149 10.949 24.4896 11.2367 24.3994 11.4797L26.2744 12.1756C26.3067 12.0887 26.3325 12.0304 26.3505 11.9946C26.3593 11.9773 26.3642 11.9692 26.3648 11.9682C26.3657 11.9667 26.3592 11.9775 26.3441 11.9958L24.8014 10.723ZM24.4006 11.4765C24.3244 11.6796 24.2695 11.8267 24.2549 11.8703L26.1523 12.5028C26.1485 12.5141 26.1472 12.5173 26.1549 12.4961C26.1605 12.4809 26.1686 12.4589 26.1795 12.4296C26.2012 12.3713 26.2323 12.2878 26.2732 12.1788L24.4006 11.4765ZM24.2705 11.8271L21.1738 19.8661L23.0401 20.585L26.1368 12.546L24.2705 11.8271ZM22.1069 19.2256H21.8711V21.2256H22.1069V19.2256ZM22.8178 19.9034L20.4354 12.9034L18.5421 13.5478L20.9244 20.5478L22.8178 19.9034ZM18.5567 12.8633L15.8428 19.8462L17.707 20.5707L20.4209 13.5878L18.5567 12.8633ZM16.7749 19.2085H16.5493V21.2085H16.7749V19.2085ZM17.4884 19.8647L14.5216 11.7607L12.6435 12.4483L15.6103 20.5523L17.4884 19.8647ZM14.5239 11.7671C14.4468 11.552 14.3674 11.3543 14.2847 11.1873C14.2194 11.0555 14.0926 10.8147 13.8797 10.633L12.5812 12.1541C12.5407 12.1196 12.5137 12.0893 12.499 12.0717C12.4838 12.0535 12.4751 12.0407 12.4725 12.0369C12.4683 12.0305 12.4752 12.0402 12.4924 12.0749C12.5271 12.1449 12.577 12.2628 12.6411 12.4419L14.5239 11.7671ZM13.8903 10.6421C13.7711 10.5375 13.5472 10.3559 13.249 10.2786L12.7471 12.2146C12.6926 12.2005 12.651 12.1834 12.6239 12.1707C12.5964 12.1579 12.5776 12.1466 12.5678 12.1405C12.55 12.1292 12.5504 12.1272 12.5707 12.145L13.8903 10.6421ZM13.258 10.281C13.0763 10.232 12.8954 10.2227 12.7554 10.2227V12.2227C12.7682 12.2227 12.7779 12.2229 12.7848 12.2232C12.7917 12.2235 12.7949 12.2238 12.7948 12.2238C12.7948 12.2238 12.79 12.2233 12.7813 12.2219C12.7726 12.2204 12.7578 12.2175 12.7381 12.2122L13.258 10.281ZM12.7554 10.2227H12.5195V12.2227H12.7554V10.2227ZM29.3619 16.835L29.2431 15.842L28.4212 15.9404L28.3643 16.7662L29.3619 16.835ZM29.3482 17.0332L28.3506 16.9644L28.3482 16.9988V17.0332H29.3482ZM30.5992 19.084L30.9633 18.1526L30.9631 18.1526L30.5992 19.084ZM32.4859 18.9985L32.9332 19.893L32.9394 19.8898L32.4859 18.9985ZM32.8346 18.8037L32.3122 17.951L32.3063 17.9547L32.8346 18.8037ZM32.9405 19.3643L33.5959 20.1196L33.6021 20.1141L32.9405 19.3643ZM32.4107 19.7471L31.8905 18.893L31.886 18.8958L32.4107 19.7471ZM29.0201 19.4395L28.2834 20.1156L28.2865 20.119L29.0201 19.4395ZM29.0133 15.2422L28.2518 14.594L28.2514 14.5944L29.0133 15.2422ZM32.7149 15.3652L31.9335 15.9892L31.9341 15.9899L32.7149 15.3652ZM33.0157 16.3599L32.461 15.5278L32.4528 15.5333L32.4447 15.539L33.0157 16.3599ZM32.8756 16.4146V15.4146H32.816L32.7568 15.4216L32.8756 16.4146ZM29.3893 16.3462L28.403 16.181L28.1806 17.5089L29.5161 17.3381L29.3893 16.3462ZM31.7955 16.0386L31.9223 17.0305L33.0768 16.8829L32.757 15.7639L31.7955 16.0386ZM31.5084 15.4712L30.7134 16.0779L30.7173 16.0829L31.5084 15.4712ZM31.2008 15.1157L31.8593 14.3631L31.8516 14.3565L31.2008 15.1157ZM29.8507 15.2832L30.5959 15.95L30.5988 15.9468L29.8507 15.2832ZM28.3643 16.7662L28.3506 16.9644L30.3459 17.102L30.3595 16.9038L28.3643 16.7662ZM28.3482 17.0332C28.3482 17.6835 28.4784 18.3085 28.8073 18.8477C29.1431 19.3982 29.6399 19.7828 30.2353 20.0154L30.9631 18.1526C30.7246 18.0594 30.5958 17.9392 30.5147 17.8061C30.4266 17.6617 30.3482 17.4242 30.3482 17.0332H28.3482ZM30.2351 20.0154C30.5932 20.1553 30.967 20.231 31.3512 20.231V18.231C31.234 18.231 31.1065 18.2086 30.9633 18.1526L30.2351 20.0154ZM31.3512 20.231C31.6594 20.231 31.9609 20.2032 32.2451 20.1348L31.7766 18.1904C31.6825 18.2131 31.5443 18.231 31.3512 18.231V20.231ZM32.2451 20.1348C32.4833 20.0774 32.7183 20.0004 32.9332 19.893L32.0387 18.1041C31.9984 18.1243 31.9167 18.1567 31.7766 18.1904L32.2451 20.1348ZM32.9394 19.8898C33.0898 19.8133 33.2317 19.7344 33.3629 19.6528L32.3063 17.9547C32.2324 18.0006 32.1418 18.0516 32.0325 18.1073L32.9394 19.8898ZM33.357 19.6564C33.4151 19.6208 33.4646 19.5913 33.506 19.5672C33.5481 19.5429 33.5784 19.5262 33.5988 19.5155C33.6088 19.5103 33.6144 19.5075 33.6162 19.5067C33.6185 19.5056 33.6132 19.5082 33.602 19.5128C33.5926 19.5166 33.5655 19.5273 33.5262 19.5382C33.5059 19.5439 33.476 19.5514 33.4388 19.5578C33.4031 19.5639 33.3476 19.5713 33.2789 19.5713V17.5713C33.0537 17.5713 32.8743 17.6497 32.8516 17.6589C32.785 17.6858 32.7224 17.7169 32.6719 17.7433C32.5682 17.7975 32.4456 17.8692 32.3122 17.951L33.357 19.6564ZM33.2789 19.5713C33.1669 19.5713 32.8992 19.5426 32.6666 19.31C32.434 19.0774 32.4054 18.8097 32.4054 18.6978H34.4054C34.4054 18.5015 34.3556 18.1706 34.0809 17.8958C33.8061 17.621 33.4752 17.5713 33.2789 17.5713V19.5713ZM32.4054 18.6978C32.4054 18.5869 32.4306 18.5067 32.4464 18.4668C32.462 18.4273 32.4744 18.4117 32.4676 18.4216L34.1107 19.5618C34.2393 19.3765 34.4054 19.076 34.4054 18.6978H32.4054ZM32.4676 18.4216C32.4532 18.4424 32.4013 18.5064 32.2789 18.6144L33.6021 20.1141C33.7897 19.9486 33.9702 19.7643 34.1107 19.5618L32.4676 18.4216ZM32.2852 18.6089C32.1775 18.7024 32.0471 18.7976 31.8905 18.8931L32.931 20.6011C33.1708 20.455 33.3937 20.295 33.5959 20.1196L32.2852 18.6089ZM31.886 18.8958C31.5784 19.0855 31.2436 19.1812 30.859 19.1812V21.1812C31.6046 21.1812 32.3043 20.9875 32.9355 20.5983L31.886 18.8958ZM30.859 19.1812C30.3269 19.1812 29.9953 19.0207 29.7538 18.7599L28.2865 20.119C28.9609 20.8471 29.8553 21.1812 30.859 21.1812V19.1812ZM29.7569 18.7633C29.4657 18.4461 29.2955 18.0307 29.2955 17.4365H27.2955C27.2955 18.4602 27.6084 19.3801 28.2834 20.1156L29.7569 18.7633ZM29.2955 17.4365C29.2955 16.7199 29.482 16.2347 29.7751 15.8899L28.2514 14.5944C27.5875 15.3753 27.2955 16.353 27.2955 17.4365H29.2955ZM29.7748 15.8904C30.0604 15.5548 30.372 15.415 30.7735 15.415V13.415C29.7669 13.415 28.905 13.8267 28.2518 14.594L29.7748 15.8904ZM30.7735 15.415C31.248 15.415 31.6112 15.5856 31.9335 15.9892L33.4964 14.7412C32.807 13.8779 31.8759 13.415 30.7735 13.415V15.415ZM31.9341 15.9899C32.0258 16.1045 32.0714 16.184 32.0919 16.2291C32.1122 16.2736 32.0978 16.2618 32.0978 16.2061H34.0978C34.0978 15.6269 33.8035 15.1251 33.4958 14.7405L31.9341 15.9899ZM32.0978 16.2061C32.0978 16.0977 32.1213 15.9615 32.1949 15.8235C32.2686 15.6852 32.3692 15.589 32.461 15.5278L33.5704 17.1919C33.9051 16.9688 34.0978 16.6043 34.0978 16.2061H32.0978ZM32.4447 15.539C32.4664 15.5238 32.5112 15.4953 32.5778 15.4693C32.6453 15.443 32.7474 15.4146 32.8756 15.4146V17.4146C33.2056 17.4146 33.4534 17.2736 33.5868 17.1808L32.4447 15.539ZM32.7568 15.4216L29.2431 15.842L29.4807 17.8279L32.9944 17.4075L32.7568 15.4216ZM29.5161 17.3381L31.9223 17.0305L31.6687 15.0466L29.2624 15.3543L29.5161 17.3381ZM32.757 15.7639C32.6628 15.4341 32.5092 15.1307 32.2995 14.8594L30.7173 16.0829C30.7719 16.1535 30.8097 16.2283 30.834 16.3133L32.757 15.7639ZM32.3033 14.8645C32.168 14.6872 32.0138 14.4984 31.8593 14.3631L30.5423 15.8683C30.5294 15.8571 30.5392 15.864 30.5762 15.9068C30.61 15.9459 30.6554 16.0018 30.7134 16.0779L32.3033 14.8645ZM31.8516 14.3565C31.4825 14.0401 31.0365 13.8901 30.5685 13.8901V15.8901C30.579 15.8901 30.5838 15.8909 30.584 15.891C30.584 15.891 30.5807 15.8904 30.5751 15.8884C30.5694 15.8864 30.5635 15.8836 30.5582 15.8805C30.5557 15.8791 30.5537 15.8777 30.5522 15.8767C30.5515 15.8762 30.5509 15.8757 30.5506 15.8754C30.5502 15.8751 30.55 15.875 30.55 15.875L31.8516 14.3565ZM30.5685 13.8901C29.9318 13.8901 29.4422 14.2368 29.1026 14.6196L30.5988 15.9468C30.6282 15.9137 30.651 15.8924 30.6665 15.8795C30.6819 15.8666 30.6882 15.8636 30.6848 15.8655C30.681 15.8676 30.6678 15.8742 30.6458 15.8801C30.6233 15.8862 30.5968 15.8901 30.5685 15.8901V13.8901ZM29.1054 14.6164C28.7137 15.0543 28.5001 15.6015 28.403 16.181L30.3755 16.5114C30.4288 16.1931 30.5229 16.0317 30.5959 15.95L29.1054 14.6164ZM36.3059 19.7061L35.3061 19.6842L35.3059 19.6951V19.7061H36.3059ZM36.3469 17.8296L37.3466 17.8514L37.3469 17.8405V17.8296H36.3469ZM35.3522 10.7031L34.3567 10.7972L34.4633 11.9257L35.5697 11.6792L35.3522 10.7031ZM35.3112 10.269L35.1399 9.28383L34.2287 9.44231L34.3157 10.3631L35.3112 10.269ZM37.3278 9.87939H38.3278V8.66065L37.1325 8.89865L37.3278 9.87939ZM37.3278 15.2969H36.3278V17.2401L37.9091 16.1106L37.3278 15.2969ZM37.4714 15.1807L36.844 14.4018L36.8334 14.4106L37.4714 15.1807ZM37.7004 14.9995L38.3126 15.7902L38.316 15.7875L37.7004 14.9995ZM37.9978 14.8013L38.5123 15.6588L38.5167 15.6561L37.9978 14.8013ZM38.3737 14.6064L38.7656 15.5265L38.7668 15.526L38.3737 14.6064ZM40.4348 14.6338L40.0333 15.5497L40.0356 15.5507L40.4348 14.6338ZM41.2414 15.2217L42.0133 14.586L42.0131 14.5857L41.2414 15.2217ZM40.8005 19.4736L41.4664 20.2197L41.4683 20.218L40.8005 19.4736ZM37.9294 19.9795L38.2796 19.0428L38.2739 19.0407L37.9294 19.9795ZM37.3278 15.6865L36.683 14.9222L36.3278 15.2218V15.6865H37.3278ZM38.302 19.5591L38.5353 18.5867L38.534 18.5864L38.302 19.5591ZM39.5598 19.5181L39.2767 18.5589L39.2724 18.5602L39.5598 19.5181ZM39.946 19.3608L39.4789 18.4766L39.4719 18.4804L39.946 19.3608ZM40.5886 18.7285L41.456 19.2262L41.4591 19.2206L40.5886 18.7285ZM40.7663 16.7153L39.7936 16.9474L39.7941 16.9494L40.7663 16.7153ZM40.5407 16.1035L39.6725 16.5997L40.5407 16.1035ZM39.8435 15.4097L39.3622 16.2862L39.3724 16.2918L39.3826 16.2972L39.8435 15.4097ZM39.4743 15.2559L39.7601 14.2976L39.7596 14.2974L39.4743 15.2559ZM37.3056 19.7279L37.3466 17.8514L35.3471 17.8077L35.3061 19.6842L37.3056 19.7279ZM37.3469 17.8296V10.9697H35.3469V17.8296H37.3469ZM37.3469 10.9697C37.3469 10.7839 37.3303 10.5033 37.2055 10.234C37.1372 10.0866 37.0198 9.90661 36.8212 9.76379C36.6125 9.61368 36.3759 9.54932 36.1521 9.54932V11.5493C35.9932 11.5493 35.8133 11.5025 35.6534 11.3874C35.5035 11.2796 35.4267 11.1522 35.3909 11.0749C35.331 10.9457 35.3469 10.8753 35.3469 10.9697H37.3469ZM36.1521 9.54932C35.9999 9.54932 35.8112 9.58603 35.7086 9.60576C35.5612 9.63409 35.3686 9.67496 35.1348 9.72705L35.5697 11.6792C35.7961 11.6288 35.967 11.5927 36.0863 11.5698C36.1464 11.5582 36.1864 11.5513 36.2104 11.5477C36.2223 11.5459 36.2249 11.5457 36.2207 11.5462C36.2183 11.5464 36.2117 11.5471 36.2019 11.5477C36.1928 11.5483 36.1753 11.5493 36.1521 11.5493V9.54932ZM36.3478 10.6091L36.3068 10.175L34.3157 10.3631L34.3567 10.7972L36.3478 10.6091ZM35.4826 11.2543C35.8113 11.1971 36.496 11.0647 37.5231 10.8601L37.1325 8.89865C36.0998 9.10428 35.4401 9.23162 35.1399 9.28383L35.4826 11.2543ZM36.3278 9.87939V15.2969H38.3278V9.87939H36.3278ZM37.9091 16.1106C37.9619 16.0728 38.0449 16.0041 38.1094 15.9507L36.8334 14.4106C36.7947 14.4426 36.7661 14.4661 36.7465 14.482C36.7366 14.49 36.7307 14.4947 36.728 14.4969C36.7266 14.4979 36.7272 14.4974 36.7293 14.4959C36.7306 14.4948 36.7371 14.4899 36.7466 14.4831L37.9091 16.1106ZM38.0987 15.9594C38.1766 15.8967 38.2478 15.8404 38.3126 15.7902L37.0882 14.2088C37.0117 14.268 36.9302 14.3325 36.8441 14.4019L38.0987 15.9594ZM38.316 15.7875C38.3438 15.7659 38.4044 15.7235 38.5122 15.6588L37.4833 13.9438C37.3404 14.0295 37.2028 14.1192 37.0847 14.2115L38.316 15.7875ZM38.5167 15.6561C38.6082 15.6005 38.6911 15.5582 38.7656 15.5265L37.9819 13.6864C37.8102 13.7595 37.6425 13.8471 37.4788 13.9465L38.5167 15.6561ZM38.7668 15.526C38.9244 15.4586 39.1229 15.415 39.3786 15.415V13.415C38.8914 13.415 38.42 13.4991 37.9807 13.6869L38.7668 15.526ZM39.3786 15.415C39.615 15.415 39.8301 15.4606 40.0333 15.5497L40.8362 13.7179C40.3741 13.5153 39.885 13.415 39.3786 13.415V15.415ZM40.0356 15.5507C40.2471 15.6428 40.3809 15.7499 40.4697 15.8576L42.0131 14.5857C41.6963 14.2013 41.2923 13.9165 40.8339 13.7169L40.0356 15.5507ZM40.4695 15.8574C40.7247 16.1673 40.8635 16.5413 40.8635 17.0332H42.8635C42.8635 16.1169 42.5876 15.2833 42.0133 14.586L40.4695 15.8574ZM40.8635 17.0332C40.8635 17.7536 40.6203 18.2919 40.1327 18.7293L41.4683 20.218C42.398 19.3839 42.8635 18.2952 42.8635 17.0332H40.8635ZM40.1346 18.7276C39.8512 18.9805 39.4896 19.1265 38.9787 19.1265V21.1265C39.9216 21.1265 40.7745 20.8372 41.4664 20.2197L40.1346 18.7276ZM38.9787 19.1265C38.601 19.1265 38.3848 19.0821 38.2796 19.0428L37.5792 20.9162C37.9981 21.0728 38.4814 21.1265 38.9787 21.1265V19.1265ZM38.2739 19.0407C38.0214 18.9481 37.8136 18.8747 37.6559 18.8234C37.578 18.7981 37.5017 18.7747 37.4331 18.7565C37.4051 18.7491 37.254 18.7061 37.0886 18.7061V20.7061C36.9996 20.7061 36.9363 20.6928 36.9329 20.6922C36.9176 20.6892 36.912 20.6874 36.9209 20.6898C36.9383 20.6944 36.9751 20.7051 37.0374 20.7254C37.1599 20.7652 37.3406 20.8286 37.5849 20.9183L38.2739 19.0407ZM37.0886 18.7061C36.8096 18.7061 36.5919 18.8132 36.5026 18.8598C36.3859 18.9207 36.277 18.995 36.183 19.0652L37.3789 20.6682C37.4284 20.6313 37.4426 20.6252 37.4284 20.6326C37.4204 20.6368 37.3913 20.6516 37.345 20.6667C37.3024 20.6806 37.2115 20.7061 37.0886 20.7061V18.7061ZM36.183 19.0652C36.1378 19.0989 36.1274 19.1019 36.1458 19.0928C36.1562 19.0875 36.1856 19.0735 36.231 19.0598C36.2748 19.0466 36.3545 19.0273 36.4597 19.0273V21.0273C36.7228 21.0273 36.9318 20.9358 37.0402 20.8816C37.1657 20.8189 37.2806 20.7416 37.3789 20.6682L36.183 19.0652ZM36.4597 19.0273C36.6182 19.0273 36.7995 19.0722 36.9638 19.1866C37.1196 19.2951 37.204 19.4269 37.2463 19.5152C37.318 19.6651 37.3059 19.7652 37.3059 19.7061H35.3059C35.3059 19.8611 35.3193 20.1218 35.4423 20.3788C35.5103 20.5207 35.6267 20.6926 35.821 20.8279C36.0237 20.9691 36.2499 21.0273 36.4597 21.0273V19.0273ZM38.9377 14.1704C38.0964 14.1704 37.3125 14.3912 36.683 14.9222L37.9726 16.4509C38.159 16.2937 38.4482 16.1704 38.9377 16.1704V14.1704ZM36.3278 15.6865V18.6294H38.3278V15.6865H36.3278ZM36.3278 18.6294C36.3278 19.1242 36.5131 19.5828 36.8809 19.9339C37.219 20.2565 37.651 20.4318 38.0699 20.5318L38.534 18.5864C38.4247 18.5603 38.3518 18.533 38.3064 18.5113C38.2615 18.4899 38.2527 18.4784 38.2618 18.487C38.2733 18.4981 38.2947 18.5236 38.311 18.5624C38.3269 18.6005 38.3278 18.6271 38.3278 18.6294H36.3278ZM38.0686 20.5315C38.3022 20.5875 38.5408 20.6206 38.7805 20.6206V18.6206C38.7239 18.6206 38.6435 18.6127 38.5353 18.5867L38.0686 20.5315ZM38.7805 20.6206C38.9595 20.6206 39.1331 20.6126 39.2972 20.5932L39.0635 18.6069C38.9952 18.615 38.9022 18.6206 38.7805 18.6206V20.6206ZM39.2972 20.5932C39.4821 20.5715 39.6663 20.5301 39.8471 20.4759L39.2724 18.5602C39.1798 18.588 39.111 18.6014 39.0635 18.6069L39.2972 20.5932ZM39.8428 20.4772C40.043 20.4181 40.2363 20.3403 40.4201 20.2413L39.4719 18.4804C39.4187 18.509 39.3545 18.536 39.2767 18.559L39.8428 20.4772ZM40.4131 20.245C40.6279 20.1316 40.8197 19.9865 40.9906 19.8225L39.6055 18.3797C39.5485 18.4344 39.5056 18.4625 39.4789 18.4766L40.4131 20.245ZM40.9906 19.8225C41.1741 19.6462 41.3295 19.4465 41.4559 19.2262L39.7212 18.2308C39.6881 18.2886 39.6498 18.3372 39.6055 18.3797L40.9906 19.8225ZM41.4591 19.2206C41.7284 18.7443 41.8552 18.2205 41.8552 17.6724H39.8552C39.8552 17.9036 39.8043 18.0839 39.718 18.2365L41.4591 19.2206ZM41.8552 17.6724C41.8552 17.2396 41.8234 16.8338 41.7385 16.4813L39.7941 16.9494C39.8277 17.0891 39.8552 17.3213 39.8552 17.6724H41.8552ZM41.739 16.4833C41.6656 16.1755 41.5617 15.8746 41.409 15.6074L39.6725 16.5997C39.7021 16.6514 39.7485 16.7584 39.7936 16.9474L41.739 16.4833ZM41.409 15.6074C41.2714 15.3666 41.102 15.148 40.9 14.9568L39.5252 16.4094C39.5784 16.4597 39.6278 16.5214 39.6725 16.5997L41.409 15.6074ZM40.9 14.9568C40.7247 14.791 40.5267 14.6377 40.3043 14.5222L39.3826 16.2972C39.3971 16.3047 39.4453 16.3337 39.5252 16.4094L40.9 14.9568ZM40.3247 14.5331C40.1451 14.4345 39.9563 14.3561 39.7601 14.2976L39.1885 16.2141C39.2521 16.2331 39.3094 16.2573 39.3622 16.2862L40.3247 14.5331ZM39.7596 14.2974C39.4935 14.2182 39.2177 14.1704 38.9377 14.1704V16.1704C38.9904 16.1704 39.0723 16.1796 39.1891 16.2143L39.7596 14.2974ZM44.4393 16.7393H43.4393V17.3691L44.0073 17.6412L44.4393 16.7393ZM44.4393 16.4316L44.007 15.5299L43.4393 15.802V16.4316H44.4393ZM53.4388 12.1182H54.4388V10.5299L53.0066 11.2164L53.4388 12.1182ZM53.4388 13.0547L53.8627 13.9604L54.4388 13.6907V13.0547H53.4388ZM45.8953 16.5854L45.4714 15.6797L43.5354 16.5859L45.4717 17.4913L45.8953 16.5854ZM53.4388 20.1128H54.4388V19.4765L53.8624 19.2069L53.4388 20.1128ZM53.4388 21.0493L53.0068 21.9512L54.4388 22.637V21.0493H53.4388ZM45.4393 16.7393V16.4316H43.4393V16.7393H45.4393ZM44.8715 17.3334L53.871 13.0199L53.0066 11.2164L44.007 15.5299L44.8715 17.3334ZM52.4388 12.1182V13.0547H54.4388V12.1182H52.4388ZM53.0149 12.149L45.4714 15.6797L46.3192 17.4911L53.8627 13.9604L53.0149 12.149ZM45.4717 17.4913L53.0152 21.0187L53.8624 19.2069L46.3189 15.6796L45.4717 17.4913ZM52.4388 20.1128V21.0493H54.4388V20.1128H52.4388ZM53.8707 20.1474L44.8712 15.8374L44.0073 17.6412L53.0068 21.9512L53.8707 20.1474ZM55.9018 23.2334L54.962 22.8916L54.4739 24.2334H55.9018V23.2334ZM60.6732 10.1152V9.11523H59.9729L59.7335 9.77341L60.6732 10.1152ZM61.3329 10.1152L62.2726 10.4573L62.7611 9.11523H61.3329V10.1152ZM56.558 23.2334V24.2334H57.2582L57.4977 23.5754L56.558 23.2334ZM56.8415 23.5752L61.613 10.4571L59.7335 9.77341L54.962 22.8916L56.8415 23.5752ZM60.6732 11.1152H61.3329V9.11523H60.6732V11.1152ZM60.3932 9.7732L55.6183 22.8914L57.4977 23.5754L62.2726 10.4573L60.3932 9.7732ZM56.558 22.2334H55.9018V24.2334H56.558V22.2334ZM64.5273 15.0303L63.8277 14.3158L63.8243 14.3191L64.5273 15.0303ZM68.1572 15.0781L67.4657 15.8005L67.4664 15.8011L68.1572 15.0781ZM67.9248 15.6318L68.2168 16.5883L68.2219 16.5867L67.9248 15.6318ZM67.1865 15.6523L66.6992 16.5255L66.707 16.5299L66.7149 16.5341L67.1865 15.6523ZM66.8926 15.4541L66.2633 16.2314L66.2723 16.2385L66.8926 15.4541ZM66.5986 15.2217L67.2101 14.4304L67.2022 14.4244L66.5986 15.2217ZM65.3682 15.0986L64.8328 14.254L64.8274 14.2575L65.3682 15.0986ZM64.7461 16.0215L63.7922 15.7214L63.7907 15.7261L64.7461 16.0215ZM64.7153 18.0005L63.7658 18.3142L63.7683 18.3217L64.7153 18.0005ZM65.0571 18.6396L64.2941 19.2861L64.2986 19.2913L65.0571 18.6396ZM65.5425 19.0464L66.0526 18.1863L66.0523 18.1861L65.5425 19.0464ZM67.4155 19.2891L67.561 20.2785L67.569 20.2772L67.4155 19.2891ZM67.9351 19.1729L67.5963 18.2319L67.5902 18.2342L67.9351 19.1729ZM68.2427 19.0601L68.5938 19.9964L68.604 19.9926L68.6141 19.9885L68.2427 19.0601ZM68.3418 19.4224L68.9958 20.1789L68.9967 20.1781L68.3418 19.4224ZM67.8257 19.7676L68.2977 20.6492L68.3032 20.6462L67.8257 19.7676ZM63.748 18.5645L64.7024 18.2658L64.7018 18.2639L63.748 18.5645ZM64.5908 17.5322C64.5908 17.2371 64.6191 16.9887 64.6674 16.7812L62.7194 16.3282C62.6309 16.7086 62.5908 17.1119 62.5908 17.5322H64.5908ZM64.6674 16.7812C64.7153 16.575 64.7889 16.3826 64.8883 16.2012L63.1342 15.2402C62.9465 15.5829 62.8081 15.9465 62.7194 16.3282L64.6674 16.7812ZM64.8883 16.2012C64.9881 16.019 65.1027 15.8676 65.2304 15.7414L63.8243 14.3191C63.5509 14.5894 63.3215 14.8984 63.1342 15.2402L64.8883 16.2012ZM65.227 15.7448C65.4633 15.5134 65.7526 15.3877 66.168 15.3877V13.3877C65.2709 13.3877 64.4664 13.6904 63.8277 14.3158L65.227 15.7448ZM66.168 15.3877C66.8283 15.3877 67.2176 15.563 67.4657 15.8005L68.8488 14.3558C68.1353 13.6727 67.1984 13.3877 66.168 13.3877V15.3877ZM67.4664 15.8011C67.4842 15.8181 67.4611 15.8 67.4279 15.7476C67.3996 15.7028 67.311 15.551 67.311 15.3208H69.311C69.311 15.0268 69.1969 14.8026 69.1172 14.6769C69.0328 14.5437 68.9328 14.4361 68.8481 14.3551L67.4664 15.8011ZM67.311 15.3208C67.311 14.9172 67.5712 14.7159 67.6024 14.6929L68.7872 16.3042C68.9734 16.1673 69.311 15.8474 69.311 15.3208H67.311ZM67.6024 14.6929C67.6129 14.6852 67.6214 14.6805 67.6265 14.6779C67.6316 14.6754 67.6325 14.6755 67.6277 14.677L68.2219 16.5867C68.4182 16.5256 68.6105 16.4341 68.7872 16.3042L67.6024 14.6929ZM67.6328 14.6754C67.5405 14.7036 67.4766 14.7201 67.4364 14.7288C67.4168 14.733 67.4087 14.7342 67.4099 14.734C67.4108 14.7339 67.4159 14.7332 67.4246 14.7325C67.433 14.7318 67.4475 14.731 67.4668 14.731V16.731C67.7231 16.731 68.0076 16.6521 68.2168 16.5883L67.6328 14.6754ZM67.4668 14.731C67.5787 14.731 67.6467 14.7644 67.6582 14.7706L66.7149 16.5341C66.9223 16.6451 67.1772 16.731 67.4668 16.731V14.731ZM67.6739 14.7791C67.6274 14.7532 67.5736 14.7177 67.5128 14.6697L66.2723 16.2385C66.4075 16.3454 66.5497 16.4421 66.6992 16.5255L67.6739 14.7791ZM67.5218 14.6769C67.42 14.5945 67.3161 14.5123 67.2101 14.4304L65.9872 16.013C66.0816 16.086 66.1737 16.1588 66.2634 16.2313L67.5218 14.6769ZM67.2022 14.4244C66.8637 14.1681 66.4289 13.9448 65.9219 13.9448V15.9448C65.875 15.9448 65.8546 15.9341 65.8679 15.9396C65.8832 15.9458 65.9256 15.9664 65.9951 16.019L67.2022 14.4244ZM65.9219 13.9448C65.5412 13.9448 65.1679 14.0416 64.8328 14.254L65.9035 15.9433C65.903 15.9436 65.9016 15.9444 65.8996 15.9453C65.8976 15.9462 65.8961 15.9466 65.8956 15.9468C65.895 15.9469 65.8965 15.9465 65.9003 15.946C65.9043 15.9455 65.9113 15.9448 65.9219 15.9448V13.9448ZM64.8274 14.2575C64.5476 14.4373 64.312 14.6721 64.1346 14.9594L65.8361 16.0104C65.8501 15.9877 65.8697 15.965 65.9089 15.9398L64.8274 14.2575ZM64.1346 14.9594C63.9887 15.1955 63.8768 15.4523 63.7922 15.7214L65.7 16.3216C65.743 16.1851 65.7906 16.0841 65.8361 16.0104L64.1346 14.9594ZM63.7907 15.7261C63.6546 16.1662 63.5854 16.6166 63.5854 17.0742H65.5854C65.5854 16.8209 65.6234 16.5695 65.7015 16.3169L63.7907 15.7261ZM63.5854 17.0742C63.5854 17.5072 63.6377 17.9266 63.7658 18.3142L65.6648 17.6867C65.6197 17.5503 65.5854 17.3522 65.5854 17.0742H63.5854ZM63.7683 18.3217C63.8865 18.6701 64.0543 19.003 64.2941 19.2861L65.8201 17.9932C65.782 17.9482 65.7219 17.8549 65.6624 17.6793L63.7683 18.3217ZM64.2986 19.2913C64.509 19.5362 64.755 19.7421 65.0327 19.9067L66.0523 18.1861C65.9609 18.1319 65.8832 18.0666 65.8156 17.988L64.2986 19.2913ZM65.0324 19.9065C65.4976 20.1824 66.008 20.3403 66.5508 20.3403V18.3403C66.41 18.3403 66.2482 18.3023 66.0526 18.1863L65.0324 19.9065ZM66.5508 20.3403C66.9234 20.3403 67.2639 20.3221 67.561 20.2784L67.27 18.2997C67.1023 18.3244 66.8663 18.3403 66.5508 18.3403V20.3403ZM67.569 20.2772C67.818 20.2385 68.0716 20.188 68.2799 20.1115L67.5902 18.2342C67.5905 18.2341 67.5655 18.2428 67.5031 18.2568C67.4438 18.2701 67.3644 18.285 67.262 18.3009L67.569 20.2772ZM68.2738 20.1137C68.3909 20.0716 68.4977 20.0324 68.5938 19.9964L67.8916 18.1237C67.8054 18.156 67.7071 18.1921 67.5963 18.232L68.2738 20.1137ZM68.6141 19.9885C68.64 19.9782 68.6434 19.9781 68.63 19.9818C68.6227 19.9839 68.604 19.9889 68.5767 19.9937C68.5513 19.9981 68.5023 20.0054 68.4375 20.0054V18.0054C68.1829 18.0054 67.9528 18.099 67.8713 18.1316L68.6141 19.9885ZM68.4375 20.0054C68.2956 20.0054 68.0123 19.9624 67.7815 19.71C67.5663 19.4746 67.5469 19.2182 67.5469 19.125H69.5469C69.5469 18.9521 69.5093 18.6358 69.2576 18.3605C68.9903 18.0682 68.6523 18.0054 68.4375 18.0054V20.0054ZM67.5469 19.125C67.5469 18.8829 67.6466 18.7289 67.6724 18.6914C67.7037 18.6461 67.72 18.638 67.6869 18.6667L68.9967 20.1781C69.1004 20.0882 69.2192 19.9714 69.3188 19.8269C69.413 19.6903 69.5469 19.4469 69.5469 19.125H67.5469ZM67.6878 18.6658C67.6225 18.7223 67.5147 18.7984 67.3482 18.889L68.3032 20.6462C68.5559 20.5089 68.7922 20.3548 68.9958 20.1789L67.6878 18.6658ZM67.3537 18.886C66.9757 19.0884 66.6026 19.1812 66.2227 19.1812V21.1812C66.9501 21.1812 67.6458 20.9982 68.2977 20.6492L67.3537 18.886ZM66.2227 19.1812C65.6975 19.1812 65.3706 19.0731 65.1666 18.9398C64.9763 18.8155 64.8125 18.6175 64.7024 18.2658L62.7937 18.8631C63.0209 19.5892 63.4381 20.1996 64.0727 20.6142C64.6936 21.0198 65.4353 21.1812 66.2227 21.1812V19.1812ZM64.7018 18.2639C64.6282 18.0304 64.5908 17.7877 64.5908 17.5322H62.5908C62.5908 17.9877 62.6582 18.4332 62.7943 18.865L64.7018 18.2639ZM71.0748 15.6284L70.2159 15.1162L70.2145 15.1186L71.0748 15.6284ZM71.6148 14.9824L70.9659 14.2216L70.9627 14.2243L71.6148 14.9824ZM75.566 15.1943L74.8407 15.8828L74.8429 15.885L75.566 15.1943ZM75.5865 19.4053L76.2951 20.1109L76.2982 20.1077L75.5865 19.4053ZM71.0953 18.9165L71.9516 18.4L71.951 18.3991L71.0953 18.9165ZM71.8541 17.7134L70.8752 17.9177L70.8756 17.9194L71.8541 17.7134ZM72.0968 18.4551L71.187 18.8702L71.192 18.8809L72.0968 18.4551ZM72.4796 19.0771L71.6986 19.7019L71.7074 19.7125L72.4796 19.0771ZM72.9991 19.5078L72.5238 20.3877L72.5359 20.394L72.9991 19.5078ZM74.2364 19.5386L73.8078 18.6351L74.2364 19.5386ZM74.6773 19.1968L73.9061 18.5602L73.9001 18.5676L74.6773 19.1968ZM74.9713 18.6875L74.0428 18.3161L74.0413 18.3198L74.9713 18.6875ZM75.0362 16.2778L74.0798 16.5701L74.0823 16.578L75.0362 16.2778ZM74.6227 15.4814L75.3789 14.8272L75.376 14.8238L74.6227 15.4814ZM72.2301 15.3823L71.4676 14.7353L71.4654 14.7379L72.2301 15.3823ZM71.651 17.2622C71.651 17.0495 71.6758 16.8467 71.7241 16.6518L69.7829 16.1705C69.6945 16.527 69.651 16.8916 69.651 17.2622H71.651ZM71.7241 16.6518C71.7689 16.4714 71.8386 16.301 71.9351 16.1382L70.2145 15.1186C70.0193 15.448 69.8749 15.7995 69.7829 16.1705L71.7241 16.6518ZM71.9337 16.1406C72.0285 15.9816 72.1396 15.8501 72.267 15.7405L70.9627 14.2243C70.6663 14.4793 70.4173 14.7785 70.2159 15.1162L71.9337 16.1406ZM72.2638 15.7433C72.5113 15.5321 72.8677 15.3877 73.423 15.3877V13.3877C72.4971 13.3877 71.6481 13.6397 70.9659 14.2216L72.2638 15.7433ZM73.423 15.3877C74.1369 15.3877 74.5624 15.5895 74.8407 15.8828L76.2913 14.5059C75.5488 13.7237 74.5456 13.3877 73.423 13.3877V15.3877ZM74.8429 15.885C75.1637 16.2209 75.3658 16.6977 75.3658 17.4229H77.3658C77.3658 16.2932 77.0348 15.2843 76.2892 14.5036L74.8429 15.885ZM75.3658 17.4229C75.3658 17.977 75.1948 18.3786 74.8748 18.7028L76.2982 20.1077C77.0173 19.3792 77.3658 18.4592 77.3658 17.4229H75.3658ZM74.8779 18.6997C74.5652 19.0137 74.1269 19.2085 73.4537 19.2085V21.2085C74.5579 21.2085 75.5414 20.8678 76.2951 20.1109L74.8779 18.6997ZM73.4537 19.2085C72.7315 19.2085 72.2801 18.9446 71.9516 18.4L70.239 19.433C70.9496 20.6111 72.0704 21.2085 73.4537 21.2085V19.2085ZM71.951 18.3991C71.7559 18.0763 71.651 17.7062 71.651 17.2622H69.651C69.651 18.0442 69.8423 18.7768 70.2396 19.4339L71.951 18.3991ZM70.7721 16.876C70.7721 17.2337 70.8051 17.5818 70.8752 17.9177L72.833 17.5091C72.7937 17.3209 72.7721 17.1107 72.7721 16.876H70.7721ZM70.8756 17.9194C70.945 18.2491 71.0485 18.5666 71.187 18.8702L73.0065 18.0399C72.9309 17.8741 72.8726 17.6972 72.8327 17.5074L70.8756 17.9194ZM71.192 18.8809C71.3314 19.1772 71.4993 19.4526 71.6987 19.7018L73.2605 18.4525C73.1682 18.3371 73.0809 18.1978 73.0016 18.0293L71.192 18.8809ZM71.7074 19.7125C71.9348 19.9889 72.2078 20.2169 72.5238 20.3876L73.4744 18.628C73.394 18.5845 73.3206 18.5254 73.2518 18.4418L71.7074 19.7125ZM72.5359 20.394C72.8774 20.5726 73.248 20.665 73.6349 20.665V18.665C73.5751 18.665 73.5219 18.6527 73.4624 18.6216L72.5359 20.394ZM73.6349 20.665C73.9863 20.665 74.3363 20.598 74.665 20.4421L73.8078 18.6351C73.7811 18.6478 73.73 18.665 73.6349 18.665V20.665ZM74.665 20.4421C74.969 20.2979 75.2381 20.0934 75.4546 19.826L73.9001 18.5676C73.8842 18.5872 73.8593 18.6107 73.8078 18.6351L74.665 20.4421ZM75.4486 19.8333C75.6419 19.5991 75.7903 19.3358 75.9013 19.0552L74.0413 18.3198C73.9974 18.4311 73.9498 18.5073 73.9061 18.5602L75.4486 19.8333ZM75.8998 19.0589C76.1 18.5583 76.19 18.018 76.19 17.4536H74.19C74.19 17.8053 74.1342 18.0876 74.0428 18.3161L75.8998 19.0589ZM76.19 17.4536C76.19 16.9261 76.1316 16.4273 75.9901 15.9777L74.0823 16.578C74.1459 16.78 74.19 17.0651 74.19 17.4536H76.19ZM75.9926 15.9856C75.8625 15.56 75.6673 15.1604 75.3789 14.8272L73.8664 16.1357C73.929 16.208 74.0094 16.3394 74.0799 16.5701L75.9926 15.9856ZM75.376 14.8238C74.8367 14.206 74.1263 13.8628 73.2999 13.8628V15.8628C73.5172 15.8628 73.6886 15.932 73.8693 16.1391L75.376 14.8238ZM73.2999 13.8628C72.5603 13.8628 71.9336 14.1862 71.4676 14.7353L72.9925 16.0294C73.1144 15.8857 73.201 15.8628 73.2999 15.8628V13.8628ZM71.4654 14.7379C70.9635 15.3335 70.7721 16.0867 70.7721 16.876H72.7721C72.7721 16.3983 72.886 16.1558 72.9947 16.0268L71.4654 14.7379ZM83.0295 20.3623L82.0296 20.3489L82.0113 21.7166L83.3201 21.3192L83.0295 20.3623ZM83.0432 19.3403L84.0432 19.3537V19.3403H83.0432ZM83.0295 19.1182L83.9782 18.8019L83.4068 17.0879L82.2578 18.4822L83.0295 19.1182ZM79.1877 19.4087L79.9109 18.7181L79.9091 18.7162L79.1877 19.4087ZM78.6887 16.2437L77.7728 15.8422L77.7707 15.847L78.6887 16.2437ZM79.3176 15.3037L78.6134 14.5937L78.6105 14.5966L79.3176 15.3037ZM83.0022 15.085L82.4022 15.885L84.0022 17.085V15.085H83.0022ZM81.8811 10.7031L80.883 10.766L80.9568 11.9367L82.1011 11.6786L81.8811 10.7031ZM81.8537 10.269L81.6735 9.28541L80.7999 9.44544L80.8557 10.3319L81.8537 10.269ZM83.9797 9.7666H84.9797V8.47097L83.7263 8.79923L83.9797 9.7666ZM84.0105 19.501L83.042 19.75L84.0105 19.501ZM84.3317 19.5898L84.6025 20.5525L84.6121 20.5498L84.6217 20.5469L84.3317 19.5898ZM84.6496 19.4907L84.9515 20.4441L84.9612 20.441L84.6496 19.4907ZM85.0461 19.3711H86.0461V18.0618L84.783 18.4063L85.0461 19.3711ZM85.0461 19.7471L85.3162 20.7099L86.0461 20.5052V19.7471H85.0461ZM84.1267 20.0239L83.8304 19.0688L83.829 19.0693L84.1267 20.0239ZM79.9738 15.4712L80.7234 16.1331L80.7276 16.1283L79.9738 15.4712ZM79.6047 16.1138L78.6639 15.7747L78.6622 15.7796L79.6047 16.1138ZM79.6252 17.8433L78.6802 18.1704L78.681 18.1726L79.6252 17.8433ZM80.0559 18.626L80.8339 17.9978L80.8329 17.9966L80.0559 18.626ZM82.3972 19.231L82.8768 20.1084L82.8775 20.1081L82.3972 19.231ZM83.0022 18.8105L83.7292 19.4972L84.0022 19.2081V18.8105H83.0022ZM83.0022 15.7993H84.0022V15.4743L83.8111 15.2114L83.0022 15.7993ZM81.823 15.0029L81.5163 15.9548L81.5218 15.9565L81.823 15.0029ZM80.5207 15.0542L80.093 14.1503L80.0893 14.1521L80.5207 15.0542ZM84.0294 20.3757L84.0431 19.3537L82.0433 19.327L82.0296 20.3489L84.0294 20.3757ZM84.0432 19.3403C84.0432 19.2704 84.0419 19.1989 84.0379 19.1328C84.036 19.1033 84.0293 18.9553 83.9782 18.8019L82.0808 19.4344C82.0655 19.3886 82.0572 19.3516 82.053 19.3308C82.0484 19.3085 82.0458 19.2911 82.0444 19.2811C82.0418 19.2617 82.0414 19.2516 82.0416 19.2556C82.0421 19.2636 82.0432 19.2895 82.0432 19.3403H84.0432ZM82.2578 18.4822C81.8473 18.9802 81.4225 19.1675 80.9411 19.1675V21.1675C82.0912 21.1675 83.0587 20.6552 83.8012 19.7541L82.2578 18.4822ZM80.9411 19.1675C80.5345 19.1675 80.2095 19.0308 79.9109 18.7181L78.4645 20.0993C79.132 20.7983 79.976 21.1675 80.9411 21.1675V19.1675ZM79.9091 18.7162C79.6233 18.4185 79.4494 18.0142 79.4494 17.4092H77.4494C77.4494 18.4448 77.7677 19.3735 78.4663 20.1012L79.9091 18.7162ZM79.4494 17.4092C79.4494 17.1357 79.502 16.8824 79.6066 16.6403L77.7707 15.847C77.5563 16.3432 77.4494 16.8669 77.4494 17.4092H79.4494ZM79.6046 16.6451C79.7217 16.3778 79.8641 16.1714 80.0247 16.0108L78.6105 14.5966C78.256 14.951 77.9792 15.3713 77.7728 15.8422L79.6046 16.6451ZM80.0218 16.0137C80.4295 15.6093 80.8042 15.4697 81.1701 15.4697V13.4697C80.187 13.4697 79.3268 13.8861 78.6134 14.5937L80.0218 16.0137ZM81.1701 15.4697C81.6251 15.4697 82.0258 15.6027 82.4022 15.885L83.6022 14.285C82.8847 13.7469 82.0641 13.4697 81.1701 13.4697V15.4697ZM84.0022 15.085V10.915H82.0022V15.085H84.0022ZM84.0022 10.915C84.0022 10.7323 83.9844 10.4455 83.8455 10.1699C83.7688 10.0179 83.6426 9.84485 83.442 9.71228C83.2356 9.57585 83.0102 9.52197 82.8039 9.52197V11.522C82.6637 11.522 82.4961 11.4845 82.3393 11.3808C82.1882 11.281 82.1034 11.1571 82.0597 11.0706C81.9868 10.926 82.0022 10.8357 82.0022 10.915H84.0022ZM82.8039 9.52197C82.645 9.52197 82.4397 9.56265 82.3208 9.58599C82.1535 9.61882 81.9322 9.66646 81.6611 9.72763L82.1011 11.6786C82.3654 11.619 82.5657 11.5761 82.706 11.5485C82.7767 11.5347 82.8251 11.5261 82.8554 11.5214C82.8705 11.519 82.8755 11.5185 82.8731 11.5188C82.8716 11.5189 82.8655 11.5196 82.8559 11.5203C82.8471 11.5209 82.8287 11.522 82.8039 11.522V9.52197ZM82.8791 10.6403L82.8517 10.2062L80.8557 10.3319L80.883 10.766L82.8791 10.6403ZM82.0339 11.2527C82.5332 11.1612 83.2723 10.9856 84.233 10.734L83.7263 8.79923C82.7731 9.04889 82.0948 9.20825 81.6735 9.28541L82.0339 11.2527ZM82.9797 9.7666V19.019H84.9797V9.7666H82.9797ZM82.9797 19.019C82.9797 19.2407 82.9849 19.528 83.042 19.75L84.9789 19.2519C84.9877 19.2861 84.9897 19.3052 84.9889 19.2991C84.9885 19.2955 84.987 19.2824 84.9854 19.257C84.9821 19.2055 84.9797 19.1279 84.9797 19.019H82.9797ZM83.042 19.75C83.0776 19.8885 83.1569 20.1061 83.3486 20.2978C83.5664 20.5156 83.8502 20.6206 84.1301 20.6206V18.6206C84.3508 18.6206 84.585 18.7057 84.7628 18.8836C84.9147 19.0355 84.9639 19.1932 84.9789 19.2519L83.042 19.75ZM84.1301 20.6206C84.3014 20.6206 84.4609 20.5923 84.6025 20.5525L84.061 18.6272C84.0567 18.6284 84.0818 18.6206 84.1301 18.6206V20.6206ZM84.6217 20.5469C84.7029 20.5223 84.8135 20.4878 84.9515 20.4441L84.3477 18.5374C84.2123 18.5803 84.111 18.6118 84.0417 18.6328L84.6217 20.5469ZM84.9612 20.441C85.0861 20.4 85.202 20.3651 85.3092 20.3359L84.783 18.4063C84.6395 18.4455 84.4911 18.4903 84.3381 18.5405L84.9612 20.441ZM84.0461 19.3711V19.7471H86.0461V19.3711H84.0461ZM84.776 18.7842C84.5749 18.8406 84.257 18.9365 83.8304 19.0688L84.4229 20.979C84.8485 20.847 85.1436 20.7583 85.3162 20.7099L84.776 18.7842ZM83.829 19.0693C83.4067 19.2009 83.0435 19.313 82.7389 19.4055L83.3201 21.3192C83.6308 21.2248 83.999 21.1112 84.4244 20.9786L83.829 19.0693ZM79.2243 14.8092C78.9743 15.0923 78.7916 15.4205 78.6639 15.7747L80.5455 16.4528C80.6001 16.3012 80.6634 16.201 80.7234 16.1331L79.2243 14.8092ZM78.6622 15.7796C78.5304 16.1514 78.4714 16.5431 78.4714 16.9443H80.4714C80.4714 16.7394 80.5013 16.5774 80.5472 16.4479L78.6622 15.7796ZM78.4714 16.9443C78.4714 17.3625 78.5425 17.7726 78.6802 18.1704L80.5702 17.5162C80.5028 17.3215 80.4714 17.1322 80.4714 16.9443H78.4714ZM78.681 18.1726C78.8192 18.5687 79.0173 18.9325 79.2788 19.2554L80.8329 17.9966C80.7253 17.8637 80.6363 17.7057 80.5694 17.5139L78.681 18.1726ZM79.2778 19.2541C79.8807 20.0009 80.7121 20.3711 81.6691 20.3711V18.3711C81.2772 18.3711 81.0331 18.2445 80.8339 17.9978L79.2778 19.2541ZM81.6691 20.3711C82.0591 20.3711 82.495 20.3172 82.8768 20.1084L81.9175 18.3535C81.9436 18.3393 81.9436 18.3453 81.898 18.3541C81.8531 18.3627 81.7792 18.3711 81.6691 18.3711V20.3711ZM82.8775 20.1081C83.1874 19.9383 83.5021 19.7376 83.7292 19.4972L82.2751 18.1239C82.2803 18.1184 82.2602 18.1401 82.1931 18.1867C82.1291 18.2312 82.0389 18.2871 81.9169 18.3539L82.8775 20.1081ZM84.0022 18.8105V15.7993H82.0022V18.8105H84.0022ZM83.8111 15.2114C83.395 14.6388 82.8055 14.2645 82.1241 14.0493L81.5218 15.9565C81.8795 16.0695 82.0761 16.2261 82.1932 16.3872L83.8111 15.2114ZM82.1296 14.0511C81.8209 13.9516 81.5017 13.9038 81.177 13.9038V15.9038C81.3033 15.9038 81.4149 15.9221 81.5163 15.9547L82.1296 14.0511ZM81.177 13.9038C80.7976 13.9038 80.4333 13.9893 80.093 14.1503L80.9484 15.9581C81.032 15.9186 81.1051 15.9038 81.177 15.9038V13.9038ZM80.0893 14.1521C79.7547 14.312 79.4633 14.5351 79.2201 14.8141L80.7276 16.1283C80.7943 16.0518 80.8674 15.9969 80.9522 15.9563L80.0893 14.1521ZM88.0799 16.835L87.9611 15.842L87.1392 15.9404L87.0822 16.7662L88.0799 16.835ZM88.0662 17.0332L87.0686 16.9644L87.0662 16.9988V17.0332H88.0662ZM89.3172 19.084L89.6813 18.1526L89.6811 18.1526L89.3172 19.084ZM91.2039 18.9985L91.6511 19.893L91.6574 19.8898L91.2039 18.9985ZM91.5525 18.8037L91.0301 17.951L91.0242 17.9547L91.5525 18.8037ZM91.6585 19.3643L92.3139 20.1196L92.3201 20.1141L91.6585 19.3643ZM91.1287 19.7471L90.6084 18.893L90.6039 18.8958L91.1287 19.7471ZM87.7381 19.4395L87.0013 20.1156L87.0044 20.119L87.7381 19.4395ZM87.7312 15.2422L86.9698 14.594L86.9694 14.5944L87.7312 15.2422ZM91.4329 15.3652L90.6515 15.9892L90.652 15.9899L91.4329 15.3652ZM91.7337 16.3599L91.179 15.5278L91.1708 15.5333L91.1626 15.539L91.7337 16.3599ZM91.5936 16.4146V15.4146H91.5339L91.4747 15.4216L91.5936 16.4146ZM88.1072 16.3462L87.121 16.181L86.8985 17.5089L88.234 17.3381L88.1072 16.3462ZM90.5135 16.0386L90.6403 17.0305L91.7947 16.8829L91.475 15.7639L90.5135 16.0386ZM90.2264 15.4712L89.4314 16.0779L89.4353 16.0829L90.2264 15.4712ZM89.9187 15.1157L90.5773 14.3631L90.5695 14.3565L89.9187 15.1157ZM88.5686 15.2832L89.3139 15.95L89.3168 15.9468L88.5686 15.2832ZM87.0822 16.7662L87.0686 16.9644L89.0638 17.102L89.0775 16.9038L87.0822 16.7662ZM87.0662 17.0332C87.0662 17.6835 87.1964 18.3085 87.5252 18.8477C87.8611 19.3982 88.3578 19.7828 88.9533 20.0154L89.6811 18.1526C89.4426 18.0594 89.3138 17.9392 89.2327 17.8061C89.1446 17.6617 89.0662 17.4242 89.0662 17.0332H87.0662ZM88.9531 20.0154C89.3112 20.1553 89.685 20.231 90.0691 20.231V18.231C89.952 18.231 89.8245 18.2086 89.6813 18.1526L88.9531 20.0154ZM90.0691 20.231C90.3773 20.231 90.6789 20.2032 90.9631 20.1348L90.4945 18.1904C90.4004 18.2131 90.2622 18.231 90.0691 18.231V20.231ZM90.9631 20.1348C91.2012 20.0774 91.4363 20.0004 91.6511 19.893L90.7567 18.1041C90.7163 18.1243 90.6346 18.1567 90.4945 18.1904L90.9631 20.1348ZM91.6574 19.8898C91.8078 19.8133 91.9496 19.7344 92.0808 19.6528L91.0242 17.9547C90.9504 18.0006 90.8598 18.0516 90.7504 18.1073L91.6574 19.8898ZM92.0749 19.6564C92.133 19.6208 92.1825 19.5913 92.224 19.5672C92.266 19.5429 92.2964 19.5262 92.3168 19.5155C92.3268 19.5103 92.3324 19.5075 92.3342 19.5067C92.3365 19.5056 92.3312 19.5082 92.3199 19.5128C92.3105 19.5166 92.2835 19.5273 92.2442 19.5382C92.2238 19.5439 92.194 19.5514 92.1568 19.5578C92.121 19.5639 92.0656 19.5713 91.9969 19.5713V17.5713C91.7716 17.5713 91.5923 17.6497 91.5696 17.6589C91.503 17.6858 91.4404 17.7169 91.3898 17.7433C91.2861 17.7975 91.1636 17.8692 91.0302 17.951L92.0749 19.6564ZM91.9969 19.5713C91.8849 19.5713 91.6172 19.5426 91.3846 19.31C91.152 19.0774 91.1233 18.8097 91.1233 18.6978H93.1233C93.1233 18.5015 93.0736 18.1706 92.7988 17.8958C92.5241 17.621 92.1932 17.5713 91.9969 17.5713V19.5713ZM91.1233 18.6978C91.1233 18.5869 91.1485 18.5067 91.1643 18.4668C91.1799 18.4273 91.1924 18.4117 91.1855 18.4216L92.8287 19.5618C92.9573 19.3765 93.1233 19.076 93.1233 18.6978H91.1233ZM91.1855 18.4216C91.1711 18.4424 91.1193 18.5064 90.9969 18.6144L92.3201 20.1141C92.5076 19.9486 92.6882 19.7643 92.8287 19.5618L91.1855 18.4216ZM91.0031 18.6089C90.8955 18.7024 90.7651 18.7976 90.6084 18.8931L91.649 20.6011C91.8888 20.455 92.1116 20.295 92.3138 20.1196L91.0031 18.6089ZM90.6039 18.8958C90.2964 19.0855 89.9616 19.1812 89.577 19.1812V21.1812C90.3226 21.1812 91.0223 20.9875 91.6535 20.5983L90.6039 18.8958ZM89.577 19.1812C89.0448 19.1812 88.7133 19.0207 88.4717 18.7599L87.0044 20.119C87.6789 20.8471 88.5733 21.1812 89.577 21.1812V19.1812ZM88.4748 18.7633C88.1837 18.4461 88.0135 18.0307 88.0135 17.4365H86.0135C86.0135 18.4602 86.3263 19.3801 87.0013 20.1156L88.4748 18.7633ZM88.0135 17.4365C88.0135 16.7199 88.2 16.2347 88.4931 15.8899L86.9694 14.5944C86.3055 15.3753 86.0135 16.353 86.0135 17.4365H88.0135ZM88.4927 15.8904C88.7783 15.5548 89.09 15.415 89.4915 15.415V13.415C88.4848 13.415 87.623 13.8267 86.9698 14.594L88.4927 15.8904ZM89.4915 15.415C89.966 15.415 90.3292 15.5856 90.6515 15.9892L92.2143 14.7412C91.5249 13.8779 90.5938 13.415 89.4915 13.415V15.415ZM90.652 15.9899C90.7437 16.1045 90.7894 16.184 90.8099 16.2291C90.8302 16.2736 90.8157 16.2618 90.8157 16.2061H92.8157C92.8157 15.6269 92.5215 15.1251 92.2138 14.7405L90.652 15.9899ZM90.8157 16.2061C90.8157 16.0977 90.8392 15.9615 90.9129 15.8235C90.9866 15.6852 91.0872 15.589 91.179 15.5278L92.2884 17.1919C92.6231 16.9688 92.8157 16.6043 92.8157 16.2061H90.8157ZM91.1626 15.539C91.1844 15.5238 91.2291 15.4953 91.2958 15.4693C91.3633 15.443 91.4654 15.4146 91.5936 15.4146V17.4146C91.9236 17.4146 92.1714 17.2736 92.3048 17.1808L91.1626 15.539ZM91.4747 15.4216L87.9611 15.842L88.1987 17.8279L91.7124 17.4075L91.4747 15.4216ZM88.234 17.3381L90.6403 17.0305L90.3867 15.0466L87.9804 15.3543L88.234 17.3381ZM91.475 15.7639C91.3808 15.4341 91.2272 15.1307 91.0174 14.8594L89.4353 16.0829C89.4899 16.1535 89.5277 16.2283 89.5519 16.3133L91.475 15.7639ZM91.0213 14.8645C90.886 14.6872 90.7318 14.4984 90.5773 14.3631L89.2602 15.8683C89.2474 15.8571 89.2571 15.864 89.2942 15.9068C89.328 15.9459 89.3734 16.0018 89.4314 16.0779L91.0213 14.8645ZM90.5695 14.3565C90.2005 14.0401 89.7544 13.8901 89.2864 13.8901V15.8901C89.2969 15.8901 89.3018 15.8909 89.302 15.891C89.302 15.891 89.2987 15.8904 89.2931 15.8884C89.2874 15.8864 89.2815 15.8836 89.2762 15.8805C89.2737 15.8791 89.2716 15.8777 89.2702 15.8767C89.2695 15.8762 89.2689 15.8757 89.2685 15.8754C89.2681 15.8751 89.268 15.875 89.268 15.875L90.5695 14.3565ZM89.2864 13.8901C88.6498 13.8901 88.1601 14.2368 87.8205 14.6196L89.3168 15.9468C89.3461 15.9137 89.369 15.8924 89.3844 15.8795C89.3998 15.8666 89.4061 15.8636 89.4027 15.8655C89.3989 15.8676 89.3857 15.8742 89.3638 15.8801C89.3413 15.8862 89.3148 15.8901 89.2864 15.8901V13.8901ZM87.8234 14.6164C87.4316 15.0543 87.218 15.6015 87.121 16.181L89.0935 16.5114C89.1468 16.1931 89.2408 16.0317 89.3139 15.95L87.8234 14.6164ZM94.6889 20.1128L94.2653 19.2069L93.6889 19.4765V20.1128H94.6889ZM102.232 16.5854L102.656 17.4913L104.592 16.5859L102.656 15.6797L102.232 16.5854ZM94.6889 13.0547H93.6889V13.6907L94.2649 13.9604L94.6889 13.0547ZM94.6889 12.1182L95.1211 11.2164L93.6889 10.5299V12.1182H94.6889ZM103.688 16.4316H104.688V15.802L104.121 15.5299L103.688 16.4316ZM103.688 16.7393L104.12 17.6412L104.688 17.3691V16.7393H103.688ZM94.6889 21.0493H93.6889V22.637L95.1208 21.9512L94.6889 21.0493ZM95.1124 21.0187L102.656 17.4913L101.809 15.6796L94.2653 19.2069L95.1124 21.0187ZM102.656 15.6797L95.1128 12.149L94.2649 13.9604L101.808 17.4911L102.656 15.6797ZM95.6889 13.0547V12.1182H93.6889V13.0547H95.6889ZM94.2566 13.0199L103.256 17.3334L104.121 15.5299L95.1211 11.2164L94.2566 13.0199ZM102.688 16.4316V16.7393H104.688V16.4316H102.688ZM103.256 15.8374L94.2569 20.1474L95.1208 21.9512L104.12 17.6412L103.256 15.8374ZM95.6889 21.0493V20.1128H93.6889V21.0493H95.6889ZM106.14 10.3973V9.39727H105.115L105.14 10.4216L106.14 10.3973ZM107.44 10.3973L108.23 9.78456L107.93 9.39727H107.44V10.3973ZM110.885 14.8413L110.095 15.454L111.885 17.7633V14.8413H110.885ZM110.791 10.7767L111.337 9.939L111.328 9.933L110.791 10.7767ZM110.129 10.7336L109.13 10.6849L109.079 11.7336H110.129V10.7336ZM110.145 10.3973V9.39727H109.193L109.146 10.3485L110.145 10.3973ZM111.935 10.3973H112.935V9.39727H111.935V10.3973ZM111.935 10.7336V11.7336H112.935V10.7336H111.935ZM111.404 10.7828L111.912 11.644L111.925 11.6364L111.938 11.6283L111.404 10.7828ZM111.267 16.1025L110.313 15.8014L110.304 15.8305L110.297 15.86L111.267 16.1025ZM110.978 16.0964L110.197 16.7211L110.231 16.7643L110.27 16.8035L110.978 16.0964ZM110.945 16.0513L110.121 16.6178L110.128 16.628L110.945 16.0513ZM110.902 15.9918L111.694 15.3821L111.691 15.3775L110.902 15.9918ZM107.239 11.2873L108.028 10.673L106.207 8.33413L106.239 11.2981L107.239 11.2873ZM107.282 15.2863L108.282 15.2863L108.282 15.2756L107.282 15.2863ZM107.389 15.6186L106.902 16.4919L106.914 16.499L106.927 16.5058L107.389 15.6186ZM108.045 15.6719H109.045V14.6719H108.045V15.6719ZM108.045 16V17H109.045V16H108.045ZM106.281 16H105.281V17H106.281V16ZM106.281 15.6719V14.6719H105.281V15.6719H106.281ZM106.849 15.5775L107.774 15.9593L107.775 15.9562L106.849 15.5775ZM106.886 10.8341H107.886V10.4709L107.653 10.1924L106.886 10.8341ZM106.802 10.7336L107.569 10.0919L107.269 9.73359H106.802V10.7336ZM106.148 10.7336L105.148 10.758L105.172 11.7336H106.148V10.7336ZM106.14 11.3973H107.44V9.39727H106.14V11.3973ZM106.65 11.01L110.095 15.454L111.676 14.2286L108.23 9.78456L106.65 11.01ZM111.885 14.8413V11.0351H109.885V14.8413H111.885ZM111.885 11.0351C111.885 10.817 111.843 10.2691 111.337 9.93905L110.245 11.6143C110.058 11.4925 109.964 11.329 109.922 11.215C109.885 11.1118 109.885 11.0402 109.885 11.0351H111.885ZM111.328 9.933C111.095 9.78474 110.846 9.75874 110.782 9.75117C110.666 9.73756 110.542 9.73359 110.424 9.73359V11.7336C110.462 11.7336 110.492 11.7343 110.515 11.7353C110.526 11.7358 110.534 11.7363 110.54 11.7368C110.546 11.7372 110.549 11.7376 110.549 11.7375C110.549 11.7375 110.548 11.7374 110.546 11.7371C110.543 11.7368 110.54 11.7363 110.536 11.7356C110.528 11.7342 110.513 11.7314 110.494 11.7263C110.474 11.7214 110.444 11.7127 110.407 11.6982C110.371 11.6842 110.316 11.6601 110.254 11.6203L111.328 9.933ZM110.424 9.73359H110.129V11.7336H110.424V9.73359ZM111.127 10.7823L111.144 10.446L109.146 10.3485L109.13 10.6849L111.127 10.7823ZM110.145 11.3973H111.935V9.39727H110.145V11.3973ZM110.935 10.3973V10.7336H112.935V10.3973H110.935ZM111.935 9.73359H111.742V11.7336H111.935V9.73359ZM111.742 9.73359C111.63 9.73359 111.506 9.73859 111.384 9.75631C111.287 9.77036 111.077 9.80676 110.87 9.93732L111.938 11.6283C111.85 11.6838 111.776 11.709 111.741 11.7194C111.703 11.7308 111.677 11.7347 111.672 11.7355C111.663 11.7368 111.682 11.7336 111.742 11.7336V9.73359ZM110.896 9.9216C110.34 10.2497 110.279 10.8369 110.279 11.1027H112.279C112.279 11.1031 112.279 11.1175 112.275 11.1427C112.271 11.1677 112.263 11.2104 112.242 11.2639C112.196 11.3794 112.097 11.5351 111.912 11.644L110.896 9.9216ZM110.279 11.1027V15.9405H112.279V11.1027H110.279ZM110.279 15.9405C110.279 15.9677 110.278 15.9743 110.279 15.9668C110.279 15.9627 110.28 15.9479 110.284 15.9257C110.285 15.9143 110.288 15.8983 110.292 15.8788C110.297 15.8599 110.303 15.8332 110.313 15.8014L112.22 16.4037C112.26 16.2767 112.27 16.1623 112.273 16.1183C112.278 16.0568 112.279 15.9954 112.279 15.9405H110.279ZM110.297 15.86C110.347 15.6587 110.475 15.4404 110.704 15.293C110.908 15.1611 111.104 15.1436 111.203 15.1436V17.1436C111.338 17.1436 111.562 17.1192 111.788 16.9736C112.038 16.8125 112.18 16.5737 112.237 16.3451L110.297 15.86ZM111.203 15.1436H111.086V17.1436H111.203V15.1436ZM111.086 15.1436C111.097 15.1436 111.159 15.1433 111.245 15.1622C111.289 15.172 111.365 15.1922 111.453 15.2355C111.54 15.2782 111.674 15.3606 111.792 15.5112L110.213 16.739C110.44 17.031 110.743 17.0996 110.816 17.1157C110.93 17.1407 111.029 17.1436 111.086 17.1436V15.1436ZM111.792 15.5112C111.77 15.4833 111.733 15.4376 111.685 15.3893L110.27 16.8035C110.251 16.7844 110.237 16.7687 110.23 16.7595C110.221 16.7498 110.216 16.7426 110.213 16.739L111.792 15.5112ZM111.758 15.4717C111.763 15.4769 111.766 15.4811 111.768 15.4837C111.77 15.4864 111.772 15.4885 111.772 15.4897C111.774 15.492 111.775 15.4929 111.774 15.4918C111.772 15.4895 111.768 15.4841 111.762 15.4746L110.128 16.628C110.14 16.6456 110.169 16.6864 110.197 16.7211L111.758 15.4717ZM111.769 15.4847C111.745 15.4508 111.721 15.4162 111.694 15.3821L110.109 16.6015C110.11 16.6029 110.114 16.608 110.121 16.6178L111.769 15.4847ZM111.691 15.3775L108.028 10.673L106.45 11.9016L110.113 16.6061L111.691 15.3775ZM106.239 11.2981L106.282 15.2971L108.282 15.2756L108.239 11.2765L106.239 11.2981ZM106.282 15.2863C106.282 15.4295 106.294 15.6179 106.357 15.8114C106.419 16.0049 106.565 16.3044 106.902 16.4919L107.876 14.7452C108.141 14.8931 108.234 15.1173 108.261 15.2001C108.287 15.2829 108.282 15.325 108.282 15.2863H106.282ZM106.927 16.5058C107.144 16.6184 107.371 16.6435 107.466 16.6532C107.6 16.6671 107.749 16.6719 107.903 16.6719V14.6719C107.845 14.6719 107.796 14.6709 107.756 14.6693C107.716 14.6677 107.688 14.6656 107.672 14.6639C107.668 14.6635 107.665 14.6631 107.663 14.6629C107.661 14.6626 107.66 14.6624 107.66 14.6625C107.66 14.6625 107.661 14.6627 107.664 14.6632C107.666 14.6636 107.671 14.6645 107.676 14.6657C107.687 14.668 107.706 14.6728 107.733 14.6815C107.758 14.6899 107.8 14.7052 107.85 14.7313L106.927 16.5058ZM107.903 16.6719H108.045V14.6719H107.903V16.6719ZM107.045 15.6719V16H109.045V15.6719H107.045ZM108.045 15H106.281V17H108.045V15ZM107.281 16V15.6719H105.281V16H107.281ZM106.281 16.6719H106.533V14.6719H106.281V16.6719ZM106.533 16.6719C106.666 16.6719 106.85 16.6624 107.037 16.6065C107.203 16.557 107.59 16.4032 107.774 15.9593L105.925 15.1958C106.082 14.8147 106.405 14.7081 106.465 14.6901C106.547 14.6656 106.585 14.6719 106.533 14.6719V16.6719ZM107.775 15.9562C107.875 15.7114 107.886 15.4606 107.886 15.3027H105.886C105.886 15.3333 105.885 15.3406 105.886 15.3306C105.887 15.3249 105.889 15.3107 105.894 15.2902C105.899 15.27 105.908 15.2382 105.924 15.1989L107.775 15.9562ZM107.886 15.3027V10.8341H105.886V15.3027H107.886ZM107.653 10.1924L107.569 10.0919L106.035 11.3753L106.119 11.4758L107.653 10.1924ZM106.802 9.73359H106.148V11.7336H106.802V9.73359ZM107.148 10.7092L107.139 10.3729L105.14 10.4216L105.148 10.758L107.148 10.7092ZM117.143 11.0617L117.773 11.8384L117.775 11.8367L117.143 11.0617ZM116.641 10.7336L115.642 10.7884L115.694 11.7336H116.641V10.7336ZM116.623 10.3973V9.39727H115.566L115.624 10.4521L116.623 10.3973ZM118.638 10.3973H119.638V9.39727H118.638V10.3973ZM118.638 10.7336V11.7336H119.638V10.7336H118.638ZM118.058 10.7951L117.605 9.90365L117.593 9.90995L118.058 10.7951ZM117.404 11.2791L118.029 12.0596L118.033 12.0565L117.404 11.2791ZM115.507 12.7987L114.882 12.0183L114.029 12.7015L114.785 13.4906L115.507 12.7987ZM118.044 15.4463L118.767 14.7553L118.766 14.7544L118.044 15.4463ZM118.891 15.6719L119.889 15.7218L119.942 14.6719H118.891V15.6719ZM118.874 16V17H119.826L119.873 16.0499L118.874 16ZM117.556 16L116.816 16.6731L117.114 17H117.556V16ZM115.002 13.1945L115.742 12.5215L115.107 11.8236L114.373 12.4172L115.002 13.1945ZM114.691 13.4468L114.062 12.6694L113.691 12.9696V13.4468H114.691ZM114.721 15.5447L113.864 16.0592L113.869 16.067L113.873 16.0747L114.721 15.5447ZM114.793 15.6165L114.311 16.4927L114.32 16.4976L114.329 16.5023L114.793 15.6165ZM114.873 15.6473L114.656 16.6235L114.667 16.6258L114.873 15.6473ZM114.992 15.6637L114.89 16.6585L114.902 16.6597L114.914 16.6606L114.992 15.6637ZM115.54 15.6719H116.54V14.6719H115.54V15.6719ZM115.54 16V17H116.54V16H115.54ZM113.388 16L112.389 16.025L112.413 17H113.388V16ZM113.38 15.6719V14.6719H112.355L112.381 15.6969L113.38 15.6719ZM113.991 15.5693L114.886 16.0165L114.896 15.9962L114.905 15.9755L113.991 15.5693ZM114.006 15.5017L114.998 15.6257L114.999 15.6208L114.006 15.5017ZM113.971 10.789L113.406 11.6143L113.416 11.621L113.426 11.6274L113.971 10.789ZM113.877 10.75L113.634 11.7201L113.647 11.7233L113.66 11.7262L113.877 10.75ZM113.231 10.7336H112.231V11.7336H113.231V10.7336ZM113.231 10.3973V9.39727H112.231V10.3973H113.231ZM115.331 10.3973H116.331V9.39727H115.331V10.3973ZM115.331 10.7336V11.7336H116.331V10.7336H115.331ZM114.777 10.7705L114.05 10.0839L114.039 10.0949L114.029 10.1061L114.777 10.7705ZM114.723 10.8525L115.628 11.2784L115.634 11.2663L114.723 10.8525ZM114.691 13.051H113.691V15.1496L115.321 13.8276L114.691 13.051ZM117.775 11.8367C117.867 11.7622 117.973 11.6679 118.066 11.5581C118.113 11.5028 118.175 11.4217 118.229 11.3179C118.279 11.2202 118.355 11.0428 118.355 10.8115H116.355C116.355 10.6063 116.421 10.4587 116.454 10.3949C116.491 10.3249 116.526 10.2816 116.538 10.2679C116.56 10.2416 116.561 10.2464 116.511 10.2868L117.775 11.8367ZM118.355 10.8115C118.355 10.3041 118.015 10.0225 117.847 9.92114C117.685 9.82344 117.529 9.78756 117.455 9.7727C117.29 9.73952 117.112 9.73359 116.967 9.73359V11.7336C117.08 11.7336 117.096 11.7407 117.061 11.7335C117.051 11.7316 116.944 11.7119 116.814 11.6337C116.678 11.5519 116.355 11.2929 116.355 10.8115H118.355ZM116.967 9.73359H116.641V11.7336H116.967V9.73359ZM117.639 10.6788L117.621 10.3425L115.624 10.4521L115.642 10.7884L117.639 10.6788ZM116.623 11.3973H118.638V9.39727H116.623V11.3973ZM117.638 10.3973V10.7336H119.638V10.3973H117.638ZM118.638 9.73359H118.421V11.7336H118.638V9.73359ZM118.421 9.73359C118.207 9.73359 117.897 9.75539 117.605 9.90373L118.511 11.6865C118.472 11.7065 118.439 11.7181 118.418 11.7247C118.396 11.7313 118.382 11.734 118.376 11.7349C118.368 11.7364 118.38 11.7336 118.421 11.7336V9.73359ZM117.593 9.90995C117.381 10.0211 117.082 10.253 116.775 10.5017L118.033 12.0565C118.192 11.9279 118.316 11.8308 118.409 11.7621C118.515 11.6838 118.543 11.6697 118.523 11.6803L117.593 9.90995ZM116.779 10.4986L114.882 12.0183L116.132 13.5792L118.029 12.0596L116.779 10.4986ZM114.785 13.4906L117.322 16.1381L118.766 14.7544L116.229 12.1069L114.785 13.4906ZM117.321 16.1373C117.412 16.233 117.561 16.3822 117.734 16.4863L118.763 14.7713C118.779 14.7806 118.791 14.7888 118.8 14.7948C118.809 14.8009 118.815 14.8059 118.819 14.8091C118.824 14.8124 118.826 14.8146 118.827 14.8154C118.828 14.8162 118.828 14.816 118.826 14.8146C118.823 14.8117 118.816 14.8055 118.806 14.7952C118.795 14.7849 118.782 14.7718 118.767 14.7553L117.321 16.1373ZM117.734 16.4863C117.938 16.6087 118.168 16.6719 118.405 16.6719V14.6719C118.529 14.6719 118.655 14.7063 118.763 14.7713L117.734 16.4863ZM118.405 16.6719H118.891V14.6719H118.405V16.6719ZM117.892 15.6219L117.876 15.9501L119.873 16.0499L119.889 15.7218L117.892 15.6219ZM118.874 15H117.556V17H118.874V15ZM118.295 15.3269L115.742 12.5215L114.263 13.8676L116.816 16.6731L118.295 15.3269ZM114.373 12.4172L114.062 12.6694L115.32 14.2241L115.631 13.9719L114.373 12.4172ZM113.691 13.4468V15.2863H115.691V13.4468H113.691ZM113.691 15.2863C113.691 15.3747 113.694 15.4745 113.705 15.5727C113.712 15.6291 113.736 15.8457 113.864 16.0592L115.579 15.0302C115.613 15.0878 115.635 15.1384 115.649 15.1739C115.663 15.2102 115.671 15.2406 115.677 15.2616C115.687 15.3022 115.691 15.3299 115.691 15.3363C115.693 15.3484 115.691 15.336 115.691 15.2863H113.691ZM113.873 16.0747C113.963 16.218 114.103 16.3779 114.311 16.4927L115.275 14.7403C115.429 14.825 115.521 14.9371 115.569 15.0147L113.873 16.0747ZM114.329 16.5023C114.415 16.5472 114.525 16.5943 114.656 16.6235L115.09 14.6711C115.172 14.6893 115.229 14.7158 115.257 14.7307L114.329 16.5023ZM114.667 16.6258C114.747 16.6426 114.829 16.6522 114.89 16.6585L115.094 14.6689C115.075 14.667 115.064 14.6656 115.059 14.6648C115.057 14.6645 115.057 14.6645 115.06 14.665C115.062 14.6654 115.069 14.6666 115.079 14.6687L114.667 16.6258ZM114.914 16.6606C115.027 16.6695 115.184 16.6719 115.355 16.6719V14.6719C115.182 14.6719 115.097 14.6688 115.07 14.6667L114.914 16.6606ZM115.355 16.6719H115.54V14.6719H115.355V16.6719ZM114.54 15.6719V16H116.54V15.6719H114.54ZM115.54 15H113.388V17H115.54V15ZM114.388 15.975L114.38 15.6469L112.381 15.6969L112.389 16.025L114.388 15.975ZM113.38 16.6719H113.608V14.6719H113.38V16.6719ZM113.608 16.6719C113.724 16.6719 113.851 16.6682 113.969 16.6531C114.027 16.6458 114.114 16.632 114.21 16.6019C114.27 16.5831 114.51 16.5081 114.706 16.2796L113.187 14.978C113.289 14.8588 113.396 14.792 113.459 14.7584C113.525 14.723 113.58 14.7035 113.612 14.6934C113.674 14.674 113.716 14.6692 113.717 14.6691C113.722 14.6684 113.693 14.6719 113.608 14.6719V16.6719ZM114.706 16.2796C114.714 16.2692 114.816 16.1568 114.886 16.0165L113.097 15.1221C113.121 15.0742 113.143 15.0396 113.153 15.0245C113.165 15.0068 113.175 14.9941 113.179 14.988C113.188 14.9762 113.192 14.9719 113.187 14.978L114.706 16.2796ZM114.905 15.9755C114.977 15.813 114.994 15.6551 114.998 15.6257L113.013 15.3776C113.014 15.3769 113.015 15.361 113.021 15.3357C113.024 15.3225 113.028 15.3018 113.036 15.276C113.043 15.2516 113.056 15.2115 113.078 15.1632L114.905 15.9755ZM114.999 15.6208C115.005 15.5667 115.012 15.4951 115.012 15.4176H113.012C113.012 15.3985 113.013 15.3859 113.013 15.382C113.013 15.3777 113.013 15.3775 113.013 15.3825L114.999 15.6208ZM115.012 15.4176V11.0351H113.012V15.4176H115.012ZM115.012 11.0351C115.012 10.9415 115.008 10.8207 114.988 10.6994C114.978 10.6401 114.958 10.5427 114.914 10.4342C114.877 10.3451 114.772 10.1168 114.516 9.95052L113.426 11.6274C113.184 11.47 113.09 11.2586 113.064 11.1945C113.03 11.1109 113.018 11.0465 113.015 11.0282C113.009 10.989 113.012 10.9824 113.012 11.0351H115.012ZM114.536 9.96366C114.385 9.86096 114.23 9.80424 114.093 9.77381L113.66 11.7262C113.597 11.7122 113.504 11.6814 113.406 11.6143L114.536 9.96366ZM114.119 9.77986C113.933 9.73327 113.703 9.73359 113.583 9.73359V11.7336C113.615 11.7336 113.643 11.7339 113.665 11.7344C113.688 11.7349 113.704 11.7355 113.715 11.7361C113.726 11.7368 113.726 11.7371 113.718 11.7362C113.714 11.7357 113.705 11.7346 113.693 11.7325C113.681 11.7305 113.66 11.7267 113.634 11.7201L114.119 9.77986ZM113.583 9.73359H113.231V11.7336H113.583V9.73359ZM114.231 10.7336V10.3973H112.231V10.7336H114.231ZM113.231 11.3973H115.331V9.39727H113.231V11.3973ZM114.331 10.3973V10.7336H116.331V10.3973H114.331ZM115.331 9.73359H115.062V11.7336H115.331V9.73359ZM115.062 9.73359C114.962 9.73359 114.847 9.73685 114.737 9.7511C114.683 9.75806 114.601 9.77124 114.51 9.79978C114.447 9.81948 114.235 9.88774 114.05 10.0839L115.504 11.4571C115.408 11.5586 115.311 11.6171 115.252 11.648C115.19 11.6804 115.138 11.6989 115.106 11.7089C115.044 11.7282 115 11.7337 114.994 11.7345C114.979 11.7365 114.995 11.7336 115.062 11.7336V9.73359ZM114.029 10.1061C113.941 10.2059 113.868 10.3178 113.813 10.4387L115.634 11.2663C115.606 11.3272 115.569 11.3843 115.524 11.4349L114.029 10.1061ZM113.819 10.4267C113.741 10.5917 113.717 10.7481 113.706 10.8319C113.694 10.9308 113.691 11.0296 113.691 11.1191H115.691C115.691 11.0774 115.693 11.0662 115.691 11.0762C115.691 11.082 115.688 11.1017 115.681 11.1309C115.674 11.1581 115.66 11.2118 115.628 11.2783L113.819 10.4267ZM113.691 11.1191V13.051H115.691V11.1191H113.691ZM115.321 13.8276L117.773 11.8384L116.514 10.285L114.061 12.2743L115.321 13.8276Z" fill="black" mask="url(#path-2-outside-1_74_102)"/>
</g>
<defs>
<filter id="filter0_d_74_102" x="8.51953" y="9.7666" width="114.371" height="21.4668" filterUnits="userSpaceOnUse" color-interpolation-filters="sRGB">
<feFlood flood-opacity="0" result="BackgroundImageFix"/>
<feColorMatrix in="SourceAlpha" type="matrix" values="0 0 0 0 0 0 0 0 0 0 0 0 0 0 0 0 0 0 127 0" result="hardAlpha"/>
<feOffset dy="4"/>
<feGaussianBlur stdDeviation="2"/>
<feComposite in2="hardAlpha" operator="out"/>
<feColorMatrix type="matrix" values="0 0 0 0 0 0 0 0 0 0 0 0 0 0 0 0 0 0 0.25 0"/>
<feBlend mode="normal" in2="BackgroundImageFix" result="effect1_dropShadow_74_102"/>
<feBlend mode="normal" in="SourceGraphic" in2="effect1_dropShadow_74_102" result="shape"/>
</filter>
</defs>
</svg>
